<svg id="Flat" enable-background="new 0 0 512 512" height="512" viewBox="0 0 512 512" width="512" xmlns="http://www.w3.org/2000/svg"><g><circle cx="256" cy="256" fill="#79d8eb" r="184"/><circle cx="256" cy="256" fill="#dcf9fe" r="144"/><path d="m352 224h-64v-64h-64v64h-64v64h64v64h64v-64h64z" fill="#79d8eb"/><path d="m347.832 424.655-7.664-14.046c71.471-39.012 106.928-121.895 85.784-200.527-1.15-4.266 1.377-8.656 5.643-9.806 2.148-.579 4.441-.237 6.327.944l38.324 24-8.492 13.56-22.275-13.949c13.179 80.584-25.973 160.704-97.647 199.824z" fill="#afe8f3"/><path d="m76.359 304c-1.329 0-2.637-.331-3.806-.964l-44.36-24 7.614-14.072 29.822 16.136c-1.085-8.323-1.629-16.707-1.629-25.1-.015-73.697 42.153-140.901 108.518-172.947l6.964 14.4c-73.532 35.6-112.977 117.052-95.312 196.816.956 4.314-1.766 8.585-6.079 9.541-.569.126-1.15.19-1.732.19z" fill="#afe8f3"/><g><path d="m496 184h-40l-48.1 4.373c-25.113 2.281-49.831-7.412-66.7-26.155l-24.89-27.651c-11.386-12.651-10.877-32 1.158-44.035l2.532-2.532h-87.995c-26.146 0-47.342-21.195-47.343-47.341 0-.22.002-.439.005-.659h150.666l120.667 64h40z" fill="#ffd4cf"/><path d="m396.748 129.325-66.213-43.74c-3.597-2.376-8.43-1.475-10.929 2.038l-.268.377-2.532 2.532c-1.405 1.402-2.678 2.932-3.8 4.57l74.918 47.573z" fill="#ffbfb8"/></g><g><path d="m16.662 328h40l48.1-4.373c25.115-2.283 49.837 7.41 66.707 26.155l24.886 27.651c11.386 12.651 10.877 32-1.158 44.035l-2.535 2.532h87.995c26.146-.003 47.344 21.19 47.348 47.336 0 .221-.001.442-.005.664h-150.671l-120.667-64h-40z" fill="#ffd4cf"/><path d="m115.914 382.675 65.157 43.042c3.299 1.526 11.591-1.717 11.591-1.717.71-.709 5.36-5.235 6.531-7.396l-74.455-47.279z" fill="#ffbfb8"/></g></g></svg>