<svg xmlns="http://www.w3.org/2000/svg" viewBox="0 0 450 450"><defs><style>.cls-1{isolation:isolate;}.cls-2{opacity:0.35;}.cls-2,.cls-39{mix-blend-mode:multiply;}.cls-3,.cls-36{fill:#fff;}.cls-3{opacity:0;}.cls-4{fill:#fafafa;opacity:0.03;}.cls-5{fill:#f4f4f4;opacity:0.06;}.cls-6{fill:#efefef;opacity:0.1;}.cls-7{fill:#e9e9e9;opacity:0.13;}.cls-8{fill:#e4e4e4;opacity:0.16;}.cls-9{fill:#dedede;opacity:0.19;}.cls-10{fill:#d9d9d9;opacity:0.23;}.cls-11{fill:#d3d3d3;opacity:0.26;}.cls-12{fill:#cecece;opacity:0.29;}.cls-13{fill:#c8c8c8;opacity:0.32;}.cls-14{fill:#c3c3c3;opacity:0.35;}.cls-15{fill:#bebebe;opacity:0.39;}.cls-16{fill:#b8b8b8;opacity:0.42;}.cls-17{fill:#b3b3b3;opacity:0.45;}.cls-18{fill:#adadad;opacity:0.48;}.cls-19{fill:#a8a8a8;opacity:0.52;}.cls-20{fill:#a2a2a2;opacity:0.55;}.cls-21{fill:#9d9d9d;opacity:0.58;}.cls-22{fill:#979797;opacity:0.61;}.cls-23{fill:#929292;opacity:0.65;}.cls-24{fill:#8d8d8d;opacity:0.68;}.cls-25{fill:#878787;opacity:0.71;}.cls-26{fill:#828282;opacity:0.74;}.cls-27{fill:#7c7c7c;opacity:0.77;}.cls-28{fill:#777;opacity:0.81;}.cls-29{fill:#717171;opacity:0.84;}.cls-30{fill:#6c6c6c;opacity:0.87;}.cls-31{fill:#666;opacity:0.9;}.cls-32{fill:#616161;opacity:0.94;}.cls-33{fill:#5b5b5b;opacity:0.97;}.cls-34{fill:#565656;}.cls-35{fill:#f2f2f2;}.cls-37{fill:#d9bf5b;}.cls-38{fill:#f56060;}.cls-39{fill:gray;opacity:0.7;}</style></defs><title>Artboard 24</title><g class="cls-1"><g id="layer"><g class="cls-2"><path class="cls-3" d="M111.54,366.41c0-21.55,50,12.61,111.68,12.61S334.9,344.86,334.9,366.41c0,40-50,73.4-111.68,73.4S111.54,402.5,111.54,366.41Z"/><path class="cls-4" d="M113.33,367.18c0-20.91,49.22,12.1,109.94,12.1s109.93-33,109.93-12.1C333.2,406,284,438.3,223.27,438.3S113.33,402.16,113.33,367.18Z"/><path class="cls-5" d="M115.12,367.94c0-20.26,48.44,11.61,108.19,11.61S331.5,347.68,331.5,367.94c0,37.54-48.44,68.86-108.19,68.86S115.12,401.81,115.12,367.94Z"/><path class="cls-6" d="M116.91,368.71c0-19.62,47.66,11.1,106.45,11.1s106.44-30.72,106.44-11.1c0,36.3-47.65,66.59-106.44,66.59S116.91,401.47,116.91,368.71Z"/><path class="cls-7" d="M118.7,369.48c0-19,46.87,10.6,104.7,10.6s104.7-29.58,104.7-10.6c0,35.06-46.87,64.31-104.7,64.31S118.7,401.13,118.7,369.48Z"/><path class="cls-8" d="M120.48,370.25c0-18.34,46.1,10.09,103,10.09s103-28.43,103-10.09c0,33.82-46.1,62-103,62S120.48,400.78,120.48,370.25Z"/><path class="cls-9" d="M122.27,371c0-17.7,45.32,9.59,101.22,9.59S324.71,353.32,324.71,371c0,32.58-45.32,59.77-101.22,59.77S122.27,400.44,122.27,371Z"/><path class="cls-10" d="M124.06,371.78c0-17,44.54,9.09,99.47,9.09S323,354.73,323,371.78c0,31.35-44.54,57.5-99.48,57.5S124.06,400.1,124.06,371.78Z"/><path class="cls-11" d="M125.85,372.55c0-16.41,43.76,8.59,97.73,8.59s97.73-25,97.73-8.59c0,30.11-43.75,55.23-97.73,55.23S125.85,399.75,125.85,372.55Z"/><path class="cls-12" d="M127.64,373.32c0-15.77,43,8.08,96,8.08s96-23.85,96-8.08c0,28.87-43,53-96,53S127.64,399.41,127.64,373.32Z"/><path class="cls-13" d="M129.43,374.09c0-15.13,42.19,7.57,94.24,7.57s94.24-22.7,94.24-7.57c0,27.63-42.19,50.68-94.24,50.68S129.43,399.07,129.43,374.09Z"/><path class="cls-14" d="M131.21,374.85c0-14.48,41.42,7.08,92.5,7.08s92.5-21.56,92.5-7.08c0,26.4-41.41,48.42-92.5,48.42S131.21,398.72,131.21,374.85Z"/><path class="cls-15" d="M133,375.62c0-13.84,40.64,6.57,90.76,6.57s90.76-20.41,90.76-6.57c0,25.16-40.64,46.15-90.76,46.15S133,398.38,133,375.62Z"/><path class="cls-16" d="M134.79,376.39c0-13.2,39.85,6.07,89,6.07s89-19.27,89-6.07c0,23.92-39.86,43.87-89,43.87S134.79,398,134.79,376.39Z"/><path class="cls-17" d="M136.58,377.16c0-12.57,39.07,5.56,87.27,5.56s87.27-18.13,87.27-5.56c0,22.68-39.07,41.6-87.27,41.6S136.58,397.69,136.58,377.16Z"/><path class="cls-18" d="M138.37,377.93c0-11.93,38.29,5.06,85.52,5.06s85.53-17,85.53-5.06c0,21.44-38.29,39.33-85.53,39.33S138.37,397.35,138.37,377.93Z"/><path class="cls-19" d="M140.15,378.69c0-11.28,37.52,4.56,83.79,4.56s83.78-15.84,83.78-4.56c0,20.21-37.51,37.06-83.78,37.06S140.15,397,140.15,378.69Z"/><path class="cls-20" d="M141.94,379.46c0-10.64,36.73,4.05,82,4.05s82-14.69,82-4.05c0,19-36.73,34.79-82,34.79S141.94,396.66,141.94,379.46Z"/><path class="cls-21" d="M143.73,380.23c0-10,36,3.55,80.3,3.55s80.29-13.55,80.29-3.55c0,17.73-35.95,32.52-80.29,32.52S143.73,396.32,143.73,380.23Z"/><path class="cls-22" d="M145.52,381c0-9.36,35.17,3,78.55,3s78.55-12.4,78.55-3c0,16.49-35.16,30.25-78.55,30.25S145.52,396,145.52,381Z"/><path class="cls-23" d="M147.31,381.76c0-8.71,34.39,2.55,76.81,2.55s76.81-11.26,76.81-2.55c0,15.26-34.39,28-76.81,28S147.31,395.63,147.31,381.76Z"/><path class="cls-24" d="M149.1,382.53c0-8.07,33.6,2,75.06,2s75.07-10.11,75.07-2c0,14-33.61,25.71-75.07,25.71S149.1,395.29,149.1,382.53Z"/><path class="cls-25" d="M150.88,383.3c0-7.43,32.83,1.54,73.33,1.54s73.32-9,73.32-1.54c0,12.78-32.83,23.44-73.32,23.44S150.88,395,150.88,383.3Z"/><path class="cls-26" d="M152.67,384.07c0-6.79,32.05,1,71.58,1s71.58-7.82,71.58-1c0,11.54-32.05,21.16-71.58,21.16S152.67,394.6,152.67,384.07Z"/><path class="cls-27" d="M154.46,384.84c0-6.15,31.27.52,69.84.52s69.83-6.67,69.83-.52c0,10.3-31.26,18.89-69.83,18.89S154.46,394.26,154.46,384.84Z"/><path class="cls-28" d="M156.25,385.6c0-5.5,30.49,0,68.09,0s68.09-5.53,68.09,0c0,9.07-30.48,16.63-68.09,16.63S156.25,393.92,156.25,385.6Z"/><path class="cls-29" d="M158,386.37c0-4.86,29.7-.48,66.35-.48s66.34-4.38,66.34.48c0,7.83-29.7,14.35-66.34,14.35S158,393.57,158,386.37Z"/><path class="cls-30" d="M159.83,387.14c0-4.23,28.92-1,64.6-1s64.61-3.25,64.61,1c0,6.59-28.93,12.08-64.61,12.08S159.83,393.23,159.83,387.14Z"/><path class="cls-31" d="M161.61,387.91c0-3.59,28.15-1.49,62.86-1.49s62.87-2.1,62.87,1.49c0,5.35-28.15,9.81-62.87,9.81S161.61,392.89,161.61,387.91Z"/><path class="cls-32" d="M163.4,388.67c0-2.94,27.37-2,61.12-2s61.12-1,61.12,2c0,4.12-27.36,7.54-61.12,7.54S163.4,392.54,163.4,388.67Z"/><path class="cls-33" d="M165.19,389.44c0-2.3,26.58-2.49,59.37-2.49s59.38.19,59.38,2.49c0,2.88-26.58,5.27-59.38,5.27S165.19,392.2,165.19,389.44Z"/><path class="cls-34" d="M167,390.21c0-1.66,25.8-3,57.63-3s57.63,1.34,57.63,3-25.8,3-57.63,3S167,391.86,167,390.21Z"/></g><circle class="cls-35" cx="225" cy="206.83" r="196.64"/><path class="cls-36" d="M172.55,69.12a147.61,147.61,0,0,1,107.93,1.32l7-8.52a158.54,158.54,0,0,0-124.25-.48Z"/><path class="cls-36" d="M380.72,178.39A157.63,157.63,0,0,0,358.26,122l-7.09,8.55A147.27,147.27,0,0,1,370,178.39Z"/><path class="cls-36" d="M79.76,178.39A147.35,147.35,0,0,1,99.48,129l-8.22-6.81A157.6,157.6,0,0,0,69,178.39Z"/><path class="cls-36" d="M358.46,271.15a148,148,0,0,1-267.22,0H79.63c24.56,55.85,80.41,95,145.22,95s120.66-39.1,145.22-95Z"/><path class="cls-37" d="M137.57,170.23h0a7.69,7.69,0,0,0-7.69-7.69h-.51a7.69,7.69,0,0,0-7.69,7.69h0a7.7,7.7,0,0,0,7.69,7.69h.51A7.69,7.69,0,0,0,137.57,170.23Z"/><path class="cls-37" d="M164.06,202.45h0a7.69,7.69,0,0,0-7.69-7.69h-.51a7.69,7.69,0,0,0-7.69,7.69h0a7.69,7.69,0,0,0,7.69,7.69h.51A7.7,7.7,0,0,0,164.06,202.45Z"/><path class="cls-37" d="M209,88.21h0a7.69,7.69,0,0,0-7.68-7.69h-.51a7.69,7.69,0,0,0-7.69,7.69h0a7.69,7.69,0,0,0,7.69,7.69h.51A7.68,7.68,0,0,0,209,88.21Z"/><rect class="cls-37" x="217.16" y="81.2" width="32.75" height="16.73" rx="7.48" ry="7.48"/><rect class="cls-37" x="278.03" y="161.86" width="32.75" height="16.73" rx="7.48" ry="7.48"/><path class="cls-37" d="M237.9,198.21h0a8.36,8.36,0,0,1,8.36-8.36h37.66a8.36,8.36,0,0,1,8.36,8.36h0a8.36,8.36,0,0,1-8.36,8.37H246.26A8.36,8.36,0,0,1,237.9,198.21Z"/><path class="cls-37" d="M144.51,170.23h0a8.37,8.37,0,0,1,8.37-8.37h37.66a8.37,8.37,0,0,1,8.36,8.37h0a8.37,8.37,0,0,1-8.36,8.36H152.88A8.37,8.37,0,0,1,144.51,170.23Z"/><path class="cls-38" d="M308.47,303.79H141.23a15.71,15.71,0,0,1-15.71-15.71h0a15.71,15.71,0,0,1,15.71-15.72H308.47a15.72,15.72,0,0,1,15.72,15.72h0A15.71,15.71,0,0,1,308.47,303.79Z"/><path d="M119.61,116.18h-8.5a.86.86,0,0,1-.76-.52.84.84,0,0,1-.06-.33.82.82,0,0,1,.82-.82h8l5-10.45a.83.83,0,0,1,1.52,0l6.86,17L140.21,96a.78.78,0,0,1,.78-.53.79.79,0,0,1,.8.53l7.68,25.19,6.88-17a.79.79,0,0,1,.74-.51h0a.84.84,0,0,1,.76.47l5,10.45h8a.84.84,0,0,1,.85.82,1,1,0,0,1-.25.6.93.93,0,0,1-.6.25h-8.48a.86.86,0,0,1-.76-.48l-4.43-9.24-7,17.48a.86.86,0,0,1-.76.51h-.07a.83.83,0,0,1-.73-.59L141,99l-7.58,24.83a.84.84,0,0,1-.76.59h0a.82.82,0,0,1-.76-.51l-7-17.48-4.46,9.24A.84.84,0,0,1,119.61,116.18Z"/><path d="M149.39,124.69h-.06a1.1,1.1,0,0,1-1-.77L141,99.85l-7.35,24.08a1.08,1.08,0,0,1-1,.76h0a1.09,1.09,0,0,1-1-.66l-6.84-17-4.23,8.76a1.06,1.06,0,0,1-1,.6h-8.5a1.11,1.11,0,0,1-1-.65,1.08,1.08,0,0,1,1-1.49h7.82l5-10.31a1.07,1.07,0,0,1,2,.05l6.6,16.42L140,95.88a1,1,0,0,1,1-.7,1,1,0,0,1,1,.7l7.48,24.55L156.12,104a1.05,1.05,0,0,1,1-.66,1.09,1.09,0,0,1,1,.6l5,10.32h7.81a1.09,1.09,0,0,1,1.09,1.06,1.08,1.08,0,0,1-1.09,1.08h-8.48a1.09,1.09,0,0,1-1-.6l-4.2-8.76-6.84,17A1.09,1.09,0,0,1,149.39,124.69ZM141,98.79a.25.25,0,0,1,.23.17l7.59,24.83a.59.59,0,0,0,.53.42h0a.61.61,0,0,0,.54-.37l7-17.47a.26.26,0,0,1,.21-.15h0a.24.24,0,0,1,.21.14l4.44,9.24a.6.6,0,0,0,.54.34h8.48a.72.72,0,0,0,.44-.19.66.66,0,0,0,.17-.42.61.61,0,0,0-.61-.58h-8a.25.25,0,0,1-.22-.13l-5-10.46a.6.6,0,0,0-.54-.33.57.57,0,0,0-.54.36l-6.88,17a.22.22,0,0,1-.23.15.23.23,0,0,1-.22-.17L141.56,96a.55.55,0,0,0-.57-.37.56.56,0,0,0-.56.37l-7.7,25.19a.21.21,0,0,1-.21.17h0a.25.25,0,0,1-.23-.15l-6.85-17a.59.59,0,0,0-.54-.36.58.58,0,0,0-.54.32l-5.06,10.47a.23.23,0,0,1-.21.13h-8a.58.58,0,0,0-.58.58.61.61,0,0,0,0,.24.63.63,0,0,0,.54.37h8.5a.62.62,0,0,0,.53-.34l4.45-9.24a.26.26,0,0,1,.22-.14h0a.27.27,0,0,1,.22.15l7,17.48a.6.6,0,0,0,.54.36.59.59,0,0,0,.57-.42L140.76,99A.24.24,0,0,1,141,98.79Z"/><path d="M114,99.48a.73.73,0,0,1,.06-.61,15,15,0,0,1,13.28-8.05.83.83,0,0,1,0,1.66,13.32,13.32,0,0,0-11.82,7.14.84.84,0,0,1-.74.46.67.67,0,0,1-.37-.11A.72.72,0,0,1,114,99.48Z"/><path d="M114.79,100.32a1.07,1.07,0,0,1-.5-.14,1,1,0,0,1-.51-.63,1.06,1.06,0,0,1,.08-.8,15.19,15.19,0,0,1,13.49-8.17,1.07,1.07,0,0,1,0,2.14,13.07,13.07,0,0,0-11.61,7A1.08,1.08,0,0,1,114.79,100.32Zm12.56-9.27A14.72,14.72,0,0,0,114.28,99a.54.54,0,0,0,0,.43h0a.5.5,0,0,0,.28.34.56.56,0,0,0,.79-.24,13.57,13.57,0,0,1,12-7.28.58.58,0,0,0,.58-.58A.59.59,0,0,0,127.35,91.05Z"/><path d="M114.48,102.27a13.81,13.81,0,0,0-.47,3.56.84.84,0,1,1-1.67,0,15.56,15.56,0,0,1,.54-4,.79.79,0,0,1,.41-.49.81.81,0,0,1,.61-.08.85.85,0,0,1,.5.39A.79.79,0,0,1,114.48,102.27Z"/><path d="M113.16,106.91a1.08,1.08,0,0,1-1.06-1.08,15.83,15.83,0,0,1,.55-4.07,1,1,0,0,1,.53-.64,1,1,0,0,1,.79-.1,1.09,1.09,0,0,1,.63.5,1,1,0,0,1,.11.82,13.4,13.4,0,0,0-.47,3.49A1.07,1.07,0,0,1,113.16,106.91Zm.54-5.45a.63.63,0,0,0-.59.43,15.25,15.25,0,0,0-.53,3.94.59.59,0,0,0,.58.6.6.6,0,0,0,.61-.6,14,14,0,0,1,.48-3.62h0a.54.54,0,0,0-.06-.45.57.57,0,0,0-.36-.28A.27.27,0,0,0,113.7,101.46Z"/><path d="M104.05,105.83A23.31,23.31,0,0,1,141,86.91a23.32,23.32,0,0,1,36.94,18.92c0,18-35,39.46-36.49,40.37a.92.92,0,0,1-.45.12.8.8,0,0,1-.43-.12C139.06,145.31,104.05,124,104.05,105.83Zm23.3-21.65a21.68,21.68,0,0,0-21.64,21.65A19.93,19.93,0,0,0,109.08,116c8.15,13.41,28.54,26.45,31.89,28.54,3.34-2.07,23.75-15.09,31.91-28.52a20,20,0,0,0,3.36-10.18,21.68,21.68,0,0,0-21.66-21.65,21.43,21.43,0,0,0-13.1,4.42.86.86,0,0,1-1,0A21.4,21.4,0,0,0,127.35,84.18Z"/><path d="M141,146.56a1,1,0,0,1-.57-.17c-1.48-.88-36.59-22.06-36.59-40.56A23.54,23.54,0,0,1,141,86.62a23.32,23.32,0,0,1,13.61-4.34,23.58,23.58,0,0,1,23.57,23.55c0,17.69-32.86,38.28-36.61,40.57A1.07,1.07,0,0,1,141,146.56Zm-13.62-63.8a23.09,23.09,0,0,0-23.06,23.07c0,18.23,36,39.94,36.37,40.16a.61.61,0,0,0,.64,0c1.48-.9,36.37-22.43,36.37-40.16a23.11,23.11,0,0,0-23.09-23.07,22.84,22.84,0,0,0-13.47,4.35.24.24,0,0,1-.28,0A22.87,22.87,0,0,0,127.35,82.76Zm13.62,62a.28.28,0,0,1-.13,0c-3.92-2.46-23.92-15.39-32-28.63-2.25-3.69-3.4-7.15-3.4-10.28a21.89,21.89,0,0,1,35.15-17.42.6.6,0,0,0,.72,0,21.67,21.67,0,0,1,13.24-4.47,21.92,21.92,0,0,1,21.9,21.89c0,3.14-1.14,6.61-3.4,10.3-8.12,13.39-28.07,26.18-32,28.61A.24.24,0,0,1,141,144.77ZM127.35,84.42A21.43,21.43,0,0,0,106,105.83c0,3,1.12,6.42,3.33,10,7.91,13,27.5,25.75,31.69,28.38,4.18-2.6,23.72-15.21,31.7-28.36,2.21-3.62,3.34-7,3.34-10.06a21.45,21.45,0,0,0-21.43-21.41,21.14,21.14,0,0,0-13,4.37,1.08,1.08,0,0,1-1.3,0A21.23,21.23,0,0,0,127.35,84.42Z"/><path d="M305.46,110a15.5,15.5,0,0,0,5.17-13.76C309.61,89,303,83,295,82.1a19.33,19.33,0,0,0-15.19,4.68,15.5,15.5,0,0,0-5.17,13.77c1,7.28,7.6,13.23,15.64,14.15a20.89,20.89,0,0,0,2.36.14A19,19,0,0,0,305.46,110Zm-15,3.64c-7.54-.86-13.71-6.43-14.67-13.25a14.52,14.52,0,0,1,4.85-12.9A17.89,17.89,0,0,1,292.64,83a20.47,20.47,0,0,1,2.21.13c7.55.86,13.71,6.44,14.66,13.27a14.5,14.5,0,0,1-4.84,12.89A18.12,18.12,0,0,1,290.41,113.67Z"/><path d="M292.63,115.08a21.11,21.11,0,0,1-2.38-.14c-8.16-.93-14.83-7-15.86-14.36a15.75,15.75,0,0,1,5.25-14A19.53,19.53,0,0,1,295,81.87c8.15.93,14.81,7,15.84,14.37a15.72,15.72,0,0,1-5.24,14h0A19.26,19.26,0,0,1,292.63,115.08Zm0-32.87A18.8,18.8,0,0,0,280,87a15.29,15.29,0,0,0-5.1,13.56c1,7.17,7.5,13,15.44,14a19.1,19.1,0,0,0,15-4.62,15.26,15.26,0,0,0,5.09-13.55c-1-7.18-7.49-13-15.42-14A20.17,20.17,0,0,0,292.65,82.21ZM305.46,110h0Zm-12.84,4a18.65,18.65,0,0,1-2.23-.13h0c-7.66-.87-13.91-6.53-14.88-13.46a14.77,14.77,0,0,1,4.92-13.11,18.36,18.36,0,0,1,14.45-4.45c7.65.88,13.9,6.55,14.87,13.48a14.75,14.75,0,0,1-4.92,13.1A18.12,18.12,0,0,1,292.62,114Zm-2.18-.6a17.89,17.89,0,0,0,14.07-4.33,14.31,14.31,0,0,0,4.77-12.68c-.94-6.72-7-12.21-14.45-13.06a17.85,17.85,0,0,0-14.08,4.33A14.27,14.27,0,0,0,276,100.38c.94,6.72,7,12.21,14.46,13.06Z"/><path d="M302.23,94.35h-5a.14.14,0,0,1-.15-.13v-4.5a1.23,1.23,0,0,0-1.28-1.17h-6.39a1.24,1.24,0,0,0-1.28,1.17v4.5a.14.14,0,0,1-.15.13h-5a1.22,1.22,0,0,0-1.28,1.16v5.78a1.22,1.22,0,0,0,1.28,1.17h5a.14.14,0,0,1,.15.13v4.5a1.23,1.23,0,0,0,1.28,1.17h6.39a1.22,1.22,0,0,0,1.28-1.17v-4.5a.14.14,0,0,1,.15-.13h5a1.22,1.22,0,0,0,1.28-1.17V95.51A1.22,1.22,0,0,0,302.23,94.35ZM288,101.42h-5a.15.15,0,0,1-.16-.13V95.51a.15.15,0,0,1,.16-.13h5a1.22,1.22,0,0,0,1.28-1.16v-4.5a.14.14,0,0,1,.15-.13h6.39a.14.14,0,0,1,.15.13v4.5a1.23,1.23,0,0,0,1.28,1.16h5a.14.14,0,0,1,.15.13v5.78a.14.14,0,0,1-.15.13h-5a1.24,1.24,0,0,0-1.28,1.17v4.5a.13.13,0,0,1-.15.13h-6.39a.14.14,0,0,1-.15-.13v-4.5A1.23,1.23,0,0,0,288,101.42Z"/><path d="M295.82,108.5h-6.39a1.47,1.47,0,0,1-1.52-1.41V102.7H283a1.47,1.47,0,0,1-1.52-1.41V95.51a1.47,1.47,0,0,1,1.52-1.4h4.87V89.72a1.47,1.47,0,0,1,1.52-1.4h6.39a1.47,1.47,0,0,1,1.52,1.4v4.39h4.89a1.47,1.47,0,0,1,1.52,1.4v5.78a1.47,1.47,0,0,1-1.52,1.41h-4.89v4.39A1.47,1.47,0,0,1,295.82,108.5ZM283,94.58a1,1,0,0,0-1,.93v5.78a1,1,0,0,0,1,.93h5a.38.38,0,0,1,.39.37v4.5a1,1,0,0,0,1,.93h6.39a1,1,0,0,0,1-.93v-4.5a.39.39,0,0,1,.39-.37h5a1,1,0,0,0,1-.93V95.51a1,1,0,0,0-1-.93h-5a.38.38,0,0,1-.39-.36v-4.5a1,1,0,0,0-1-.93h-6.39a1,1,0,0,0-1,.93v4.5a.37.37,0,0,1-.39.36Zm12.78,12.88h-6.39a.38.38,0,0,1-.39-.37v-4.5a1,1,0,0,0-1-.93h-5a.37.37,0,0,1-.39-.37V95.51a.38.38,0,0,1,.39-.37h5a1,1,0,0,0,1-.92v-4.5a.39.39,0,0,1,.39-.37h6.39a.38.38,0,0,1,.39.37v4.5a1,1,0,0,0,1,.92h5a.38.38,0,0,1,.39.37v5.78a.37.37,0,0,1-.39.37h-5a1,1,0,0,0-1,.93v4.5A.37.37,0,0,1,295.82,107.46Zm-6.3-.48h6.22v-4.39a1.46,1.46,0,0,1,1.51-1.41h4.9V95.62h-4.9a1.46,1.46,0,0,1-1.51-1.4V89.83h-6.22v4.39a1.47,1.47,0,0,1-1.52,1.4h-4.88v5.56H288a1.47,1.47,0,0,1,1.52,1.41Z"/><path d="M307.05,126.07l0,0a1.23,1.23,0,0,0,.3-1.67l-.63-.95a3.72,3.72,0,0,0-4.77-.88,34,34,0,0,0-10.4,7.92c-1.17,1.38-1.23,3-.14,4.11l1.11,1.15a1.56,1.56,0,0,0,2,.13Zm-.71-.81-12.51,9.81a.33.33,0,0,1-.44,0l-1.11-1.15a2,2,0,0,1,.18-2.79,33.13,33.13,0,0,1,10.05-7.64,3.35,3.35,0,0,1,1.47-.36,2.07,2.07,0,0,1,1.8.88l.62.94A.24.24,0,0,1,306.34,125.26Z"/><path d="M293.63,136.41a1.76,1.76,0,0,1-1.26-.52l-1.11-1.15c-1.18-1.21-1.13-3,.12-4.43a34.73,34.73,0,0,1,10.49-8,4,4,0,0,1,5.07,1l.63,1a1.46,1.46,0,0,1-.35,2l-.17-.17.15.18-12.49,9.8A1.8,1.8,0,0,1,293.63,136.41ZM304,122.31a4.11,4.11,0,0,0-1.87.45,33.85,33.85,0,0,0-10.33,7.86,2.69,2.69,0,0,0-.14,3.79l1.11,1.15a1.33,1.33,0,0,0,1.7.11l12.48-9.79h0l0,0a1,1,0,0,0,.23-1.34l-.63-1A3.06,3.06,0,0,0,304,122.31Zm-10.32,13.07a.58.58,0,0,1-.41-.17l-1.11-1.16a2.24,2.24,0,0,1,.16-3.1,33.56,33.56,0,0,1,10.14-7.71,3.6,3.6,0,0,1,1.57-.38,2.33,2.33,0,0,1,2,1l.62,1a.49.49,0,0,1-.11.66h0L294,135.25A.53.53,0,0,1,293.63,135.38Zm10.35-12a3.13,3.13,0,0,0-1.36.33,32.8,32.8,0,0,0-10,7.59,1.79,1.79,0,0,0-.19,2.46l1.11,1.15a.09.09,0,0,0,.12,0l12.52-9.81a0,0,0,0,0,0,0l-.63-.94A1.83,1.83,0,0,0,304,123.34Zm2.36,1.92h0Z"/><path d="M321.58,105.63l1.13.27a1.55,1.55,0,0,0,.37,0,1.45,1.45,0,0,0,1.31-.78l6.67-13.73v0a1.23,1.23,0,0,0,0-.94,1.38,1.38,0,0,0-.76-.76l-1.22-.51a3.69,3.69,0,0,0-4.3,1.27,30,30,0,0,0-5.51,11.21,3.26,3.26,0,0,0,.3,2.54A3.09,3.09,0,0,0,321.58,105.63Zm-1.16-3.71h0a28.84,28.84,0,0,1,5.31-10.82A2.84,2.84,0,0,1,327.84,90a2.11,2.11,0,0,1,.82.17l1.22.51a.31.31,0,0,1,.16.16.28.28,0,0,1,0,.2l-6.67,13.73a.32.32,0,0,1-.37.15l-1.12-.27a1.93,1.93,0,0,1-1.25-.89A2.37,2.37,0,0,1,320.42,101.92Z"/><path d="M323.08,106.18a2.1,2.1,0,0,1-.43-.05l-1.12-.27h0a3.32,3.32,0,0,1-2.12-1.52,3.53,3.53,0,0,1-.32-2.72,30.27,30.27,0,0,1,5.55-11.3A4,4,0,0,1,329.23,89l1.21.51a1.58,1.58,0,0,1,.89.9,1.41,1.41,0,0,1-.05,1.12l-6.68,13.76A1.68,1.68,0,0,1,323.08,106.18Zm-1.44-.79,1.12.27a1.25,1.25,0,0,0,1.41-.6l6.67-13.73a1,1,0,0,0,0-.77,1.1,1.1,0,0,0-.62-.63L329,89.42a3.47,3.47,0,0,0-4,1.21,29.64,29.64,0,0,0-5.46,11.11,3.07,3.07,0,0,0,.27,2.36,2.86,2.86,0,0,0,1.82,1.29Zm1.44-.25a.39.39,0,0,1-.15,0l-1.11-.26a2.16,2.16,0,0,1-1.4-1,2.56,2.56,0,0,1-.23-2A29.09,29.09,0,0,1,325.54,91a3.12,3.12,0,0,1,2.3-1.22,2.48,2.48,0,0,1,.92.19l1.21.51a.52.52,0,0,1,.29.29.52.52,0,0,1,0,.39l-6.67,13.73A.56.56,0,0,1,323.08,105.14Zm4.76-14.93a2.64,2.64,0,0,0-1.93,1A28.51,28.51,0,0,0,320.65,102h0a2.11,2.11,0,0,0,.18,1.63,1.7,1.7,0,0,0,1.1.78l1.12.27a.1.1,0,0,0,.1,0l6.66-13.73-1.24-.54A1.87,1.87,0,0,0,327.84,90.21Zm-7.42,11.71Z"/><path d="M335.94,91l-.92-.39a2.62,2.62,0,0,0-1.85,0,2.37,2.37,0,0,0-1.4,1.18L325,105.7a2.11,2.11,0,0,0,.26,2.27,1.34,1.34,0,0,1,.38.92c-.53,2.58-3.15,6.81-5.46,9.66s-6.2,6.29-8.82,7.46a2,2,0,0,1-1.13-.07,2.65,2.65,0,0,0-2.37.42L295.53,136a2.83,2.83,0,0,0-1.12,2.08,2.78,2.78,0,0,0,.9,1.92,16,16,0,0,0,10.42,4.31,8.72,8.72,0,0,0,3.16-.55,39.58,39.58,0,0,0,9-5.38,81.14,81.14,0,0,0,8.38-7.57c1.64-1.72,3.1-3.34,4.46-5,1.47-1.78,2.82-3.55,4-5.24a76.15,76.15,0,0,0,5.71-9.36,32.49,32.49,0,0,0,3.23-9.37C344.33,97.81,340.11,92.79,335.94,91Zm-30.21,52.24a14.88,14.88,0,0,1-9.67-4,1.87,1.87,0,0,1-.59-1.15,1.76,1.76,0,0,1,.71-1.26l12.33-9.68a1.52,1.52,0,0,1,.94-.31,1.31,1.31,0,0,1,.44.07,2.79,2.79,0,0,0,1.89,0c2.77-1.22,6.73-4.82,9.21-7.74s5.12-7.38,5.68-10.13a2.28,2.28,0,0,0-.6-1.81,1.05,1.05,0,0,1-.12-1.13l6.77-13.93a1.34,1.34,0,0,1,.79-.63,1.51,1.51,0,0,1,1.09,0l.92.39c3.82,1.61,7.68,6.11,7.14,9.74a31.68,31.68,0,0,1-3.13,9A73.58,73.58,0,0,1,333.9,120c-1.18,1.66-2.52,3.41-4,5.17-1.34,1.6-2.78,3.21-4.41,4.91a77.83,77.83,0,0,1-8.26,7.47,38.27,38.27,0,0,1-8.76,5.23A7.66,7.66,0,0,1,305.73,143.27Z"/><path d="M305.74,144.58a16.34,16.34,0,0,1-10.6-4.38,3,3,0,0,1-1-2.09,3.07,3.07,0,0,1,1.21-2.27l12.33-9.67a2.86,2.86,0,0,1,2.59-.46,1.73,1.73,0,0,0,.95.08c2.59-1.15,6.36-4.59,8.74-7.4s4.88-7,5.4-9.55a1.12,1.12,0,0,0-.32-.72,2.33,2.33,0,0,1-.29-2.53l6.77-13.93a2.67,2.67,0,0,1,1.54-1.3,2.86,2.86,0,0,1,2,.06l.92.39c4.26,1.79,8.55,6.93,7.92,11.13a33.11,33.11,0,0,1-3.26,9.44,75.43,75.43,0,0,1-5.73,9.39c-1.21,1.71-2.57,3.48-4,5.25s-2.82,3.26-4.47,5a80.42,80.42,0,0,1-8.4,7.6A40.07,40.07,0,0,1,309,144,9,9,0,0,1,305.74,144.58Zm3.71-18.52a2.43,2.43,0,0,0-1.45.48l-12.33,9.68a2.25,2.25,0,0,0-.19,3.64,15.77,15.77,0,0,0,10.26,4.24,8.18,8.18,0,0,0,3.06-.54,38.67,38.67,0,0,0,9-5.34,79.5,79.5,0,0,0,8.36-7.55c1.63-1.71,3.09-3.33,4.44-4.95s2.81-3.52,4-5.23a75.65,75.65,0,0,0,5.69-9.33,31.92,31.92,0,0,0,3.2-9.29c.6-4-3.53-8.9-7.63-10.62h0l-.91-.39a2.34,2.34,0,0,0-1.69,0A2.15,2.15,0,0,0,332,91.87l-6.77,13.93a1.84,1.84,0,0,0,.23,2,1.53,1.53,0,0,1,.42,1.13c-.53,2.62-3.17,6.89-5.5,9.76s-6.26,6.35-8.92,7.52a2.05,2.05,0,0,1-1.29,0A2.09,2.09,0,0,0,309.45,126.06Zm-3.71,17.45a15.16,15.16,0,0,1-9.85-4.07,1.67,1.67,0,0,1,.14-2.76L308.36,127a1.81,1.81,0,0,1,1.6-.29,2.6,2.6,0,0,0,1.72,0c2.74-1.22,6.67-4.79,9.13-7.69s5.07-7.3,5.63-10a2.08,2.08,0,0,0-.55-1.61,1.28,1.28,0,0,1-.16-1.38l6.78-13.93a1.54,1.54,0,0,1,.92-.76,1.74,1.74,0,0,1,1.27,0l.92.39c3.9,1.64,7.84,6.26,7.28,10a32,32,0,0,1-3.15,9.11,73.81,73.81,0,0,1-5.65,9.26c-1.18,1.67-2.52,3.42-4,5.19-1.33,1.6-2.77,3.21-4.42,4.93a80.36,80.36,0,0,1-8.28,7.49,38.38,38.38,0,0,1-8.83,5.26A7.65,7.65,0,0,1,305.74,143.51Zm3.7-16.39a1.33,1.33,0,0,0-.78.26l-12.34,9.68a1.55,1.55,0,0,0-.61,1.07,1.51,1.51,0,0,0,.52,1,14.64,14.64,0,0,0,9.51,3.93,7.4,7.4,0,0,0,2.67-.46,37.94,37.94,0,0,0,8.7-5.2,80.58,80.58,0,0,0,8.24-7.44c1.63-1.72,3.07-3.32,4.4-4.9,1.45-1.77,2.78-3.51,4-5.16a74.76,74.76,0,0,0,5.61-9.2,31.06,31.06,0,0,0,3.1-9c.53-3.52-3.25-7.91-7-9.48l-.92-.39a1.27,1.27,0,0,0-.92,0,1.06,1.06,0,0,0-.65.52l-6.78,13.93a.81.81,0,0,0,.1.87,2.49,2.49,0,0,1,.64,2c-.57,2.79-3.31,7.26-5.73,10.23s-6.49,6.57-9.29,7.81a3,3,0,0,1-2.06,0A1.16,1.16,0,0,0,309.44,127.12Z"/><path d="M331.56,204.68c-8.25,1.54-16.05,3-22.57-3.46a.67.67,0,1,0-.94.95c7,6.94,15.53,5.36,23.76,3.83s16.06-3,22.57,3.46,5.15,14.25,3.7,22.53-2.93,16.78,4.09,23.72a.66.66,0,0,0,.94,0,.65.65,0,0,0,0-.94,15.79,15.79,0,0,1-4-6.35c-1.66-5-.7-10.47.3-16.19,1.45-8.25,2.94-16.77-4.08-23.71S339.8,203.15,331.56,204.68Z"/><path d="M362.64,256.14a.93.93,0,0,1-.64-.26c-7.1-7-5.6-15.61-4.15-23.92s2.79-16-3.64-22.33-14.16-4.92-22.36-3.4-16.87,3.14-24-3.89a.9.9,0,0,1,0-1.28.88.88,0,0,1,.65-.27h0a.9.9,0,0,1,.64.26c6.43,6.36,14.17,4.92,22.36,3.39h0c8.29-1.54,16.87-3.13,24,3.9s5.6,15.61,4.15,23.91c-1,5.75-1.95,11.16-.32,16.09a15.56,15.56,0,0,0,4,6.25.92.92,0,0,1,0,1.28A.89.89,0,0,1,362.64,256.14Zm-20.43-51.7a16.49,16.49,0,0,1,12.34,4.85c6.6,6.53,5.23,14.4,3.77,22.74s-2.91,16.66,4,23.51a.44.44,0,0,0,.61,0,.48.48,0,0,0,.13-.31.42.42,0,0,0-.13-.3,16.08,16.08,0,0,1-4.07-6.44c-1.67-5-.72-10.51.3-16.31,1.43-8.19,2.91-16.66-4-23.51s-15.38-5.28-23.55-3.75h0c-8.32,1.54-16.18,3-22.79-3.53a.42.42,0,0,0-.3-.13h0a.49.49,0,0,0-.31.13.45.45,0,0,0,0,.62c6.92,6.84,15.37,5.27,23.54,3.75A59.28,59.28,0,0,1,342.21,204.44Zm-10.64.24Z"/><path d="M327.32,181.74a.67.67,0,0,0-.2.48.69.69,0,0,0,.2.47c6.52,6.44,5.15,14.26,3.71,22.53-1,5.7-2,11.53-.24,16.87a17,17,0,0,0,4.32,6.85c7,6.94,15.52,5.36,23.76,3.83s16.05-3,22.57,3.46a.7.7,0,0,0,.47.19.67.67,0,0,0,.48-.2.71.71,0,0,0,.19-.48.67.67,0,0,0-.2-.47c-7-6.94-15.52-5.35-23.76-3.82s-16.05,3-22.57-3.46-5.15-14.26-3.71-22.53,2.93-16.78-4.08-23.72A.66.66,0,0,0,327.32,181.74Z"/><path d="M381.91,236.66a.9.9,0,0,1-.64-.26c-6.43-6.36-14.17-4.92-22.36-3.4s-16.87,3.14-24-3.89a17.18,17.18,0,0,1-4.38-6.94c-1.79-5.4-.76-11.29.23-17,1.44-8.22,2.79-16-3.64-22.33a.93.93,0,0,1-.27-.64.91.91,0,0,1,.27-.65h0a.91.91,0,0,1,1.28,0c7.1,7,5.6,15.61,4.15,23.92s-2.79,16,3.64,22.33,14.16,4.92,22.36,3.39,16.87-3.14,24,3.89a.92.92,0,0,1,0,1.29A.93.93,0,0,1,381.91,236.66Zm-12.64-5.45a16.49,16.49,0,0,1,12.34,4.85.44.44,0,0,0,.61,0,.42.42,0,0,0,.12-.3.4.4,0,0,0-.13-.31c-6.92-6.85-15.37-5.28-23.54-3.76-8.32,1.55-16.18,3-22.79-3.52s-5.23-14.4-3.77-22.72,2.9-16.68-4-23.53a.43.43,0,0,0-.61,0h0a.4.4,0,0,0-.13.31.43.43,0,0,0,.13.3c6.61,6.53,5.23,14.41,3.77,22.74-1,5.64-2,11.47-.25,16.76a16.73,16.73,0,0,0,4.27,6.75c6.92,6.85,15.37,5.28,23.54,3.76A58.36,58.36,0,0,1,369.27,231.21Zm-41.95-49.47Z"/><path d="M363.23,252.67a.71.71,0,0,0,.48-.19l15.5-15.68a.67.67,0,0,0,.2-.48.65.65,0,0,0-.2-.47.68.68,0,0,0-.95,0l-15.51,15.67a.71.71,0,0,0-.16.69.83.83,0,0,0,.17.26A.62.62,0,0,0,363.23,252.67Z"/><path d="M363.23,252.91a.9.9,0,0,1-.64-.26.84.84,0,0,1-.22-.36.89.89,0,0,1,.21-.92l15.51-15.68a.93.93,0,0,1,.64-.27h0a.9.9,0,0,1,.64.26.91.91,0,0,1,0,1.29l-15.51,15.67a.85.85,0,0,1-.64.27Zm15.51-17h0a.4.4,0,0,0-.31.13L362.92,251.7a.43.43,0,0,0,0,.61.47.47,0,0,0,.3.12h0a.45.45,0,0,0,.31-.12L379,236.63a.39.39,0,0,0,.13-.3A.4.4,0,0,0,379,236,.42.42,0,0,0,378.74,235.9Z"/><path d="M374.77,234.08l-13.83,14a.63.63,0,0,0-.2.47.78.78,0,0,0,0,.21.63.63,0,0,0,.16.26.67.67,0,0,0,.48.2.69.69,0,0,0,.47-.2l13.84-14a.7.7,0,0,0,.19-.47h0a.65.65,0,0,0-.2-.47.67.67,0,0,0-.47-.19A.67.67,0,0,0,374.77,234.08Z"/><path d="M361.42,249.45a.89.89,0,0,1-.64-.27.86.86,0,0,1-.23-.36.92.92,0,0,1-.05-.28.91.91,0,0,1,.27-.64l13.83-14h0a.93.93,0,0,1,.65-.27h0a.88.88,0,0,1,.64.26.92.92,0,0,1,0,1.29l-13.84,14a.92.92,0,0,1-.64.28Zm13.52-15.2-13.83,14a.46.46,0,0,0-.13.31.69.69,0,0,0,0,.13.42.42,0,0,0,.11.17.43.43,0,0,0,.3.13h0a.43.43,0,0,0,.3-.13l13.84-14a.42.42,0,0,0,.12-.3.42.42,0,0,0-.13-.31.41.41,0,0,0-.3-.12h0A.42.42,0,0,0,374.94,234.25Z"/><path d="M359.24,244.76a.76.76,0,0,0,0,.21.56.56,0,0,0,.17.26.63.63,0,0,0,.47.2.67.67,0,0,0,.47-.2l11.55-11.68a.63.63,0,0,0,.19-.47.67.67,0,0,0-.19-.47.67.67,0,0,0-.48-.2.63.63,0,0,0-.47.2l-11.55,11.68A.59.59,0,0,0,359.24,244.76Z"/><path d="M359.91,245.67a.89.89,0,0,1-.64-.27A1,1,0,0,1,359,245a.86.86,0,0,1,0-.28.9.9,0,0,1,.26-.64l11.55-11.68a.91.91,0,0,1,.64-.27h0a.9.9,0,0,1,.63.27.85.85,0,0,1,.27.64.9.9,0,0,1-.26.64l-11.55,11.67a.92.92,0,0,1-.64.28Zm11.54-13h0a.43.43,0,0,0-.3.13L359.6,244.45a.46.46,0,0,0-.13.31h0a.31.31,0,0,0,0,.13.48.48,0,0,0,.1.17.44.44,0,0,0,.31.13h0a.43.43,0,0,0,.3-.13l11.55-11.67a.48.48,0,0,0,.13-.31.42.42,0,0,0-.13-.3A.44.44,0,0,0,371.45,232.65Z"/><path d="M359,239.73a.76.76,0,0,0,0,.21.71.71,0,0,0,.64.46.67.67,0,0,0,.48-.2l6.8-6.88a.64.64,0,0,0,.19-.47.65.65,0,0,0-.67-.67.63.63,0,0,0-.47.2l-6.81,6.88A.67.67,0,0,0,359,239.73Z"/><path d="M359.62,240.64a.91.91,0,0,1-.64-.27.87.87,0,0,1-.22-.35.93.93,0,0,1-.05-.29h0a.9.9,0,0,1,.26-.64l6.81-6.88a.91.91,0,0,1,.64-.27h0a.92.92,0,0,1,.63.26.92.92,0,0,1,0,1.29l-6.8,6.88a.93.93,0,0,1-.64.27Zm6.8-8.22a.42.42,0,0,0-.3.13l-6.81,6.87a.45.45,0,0,0-.12.31h0a.51.51,0,0,0,0,.13.42.42,0,0,0,.11.18.41.41,0,0,0,.3.12h0a.44.44,0,0,0,.31-.13l6.8-6.88a.42.42,0,0,0,.12-.3.45.45,0,0,0-.12-.31.42.42,0,0,0-.3-.12Z"/><path d="M335.18,223.43a.65.65,0,0,0,.17.26.63.63,0,0,0,.47.2.67.67,0,0,0,.48-.2l13.83-14a.67.67,0,0,0,.2-.47.66.66,0,0,0-.2-.48.71.71,0,0,0-.48-.19.65.65,0,0,0-.47.2l-13.84,14A.69.69,0,0,0,335.18,223.43Z"/><path d="M335.82,224.13a.89.89,0,0,1-.64-.27.84.84,0,0,1-.22-.36.89.89,0,0,1,.21-.92l13.84-14a.92.92,0,0,1,1.29,0,.91.91,0,0,1,0,1.29l-13.83,14a1,1,0,0,1-.65.27Zm13.84-15.33h0a.4.4,0,0,0-.31.13l-13.84,14a.45.45,0,0,0-.1.44h0a.4.4,0,0,0,.1.17.46.46,0,0,0,.31.13h0a.44.44,0,0,0,.31-.13l13.83-14a.43.43,0,0,0,.13-.3.42.42,0,0,0-.13-.3A.39.39,0,0,0,349.66,208.8Z"/><path d="M334.31,220.11a.67.67,0,0,0,.48-.2l11.55-11.67a.71.71,0,0,0,.19-.48.63.63,0,0,0-.2-.47.65.65,0,0,0-.47-.2.72.72,0,0,0-.48.2L333.84,219a.67.67,0,0,0,.47,1.14Z"/><path d="M334.3,220.35a.92.92,0,0,1-.63-.27.91.91,0,0,1,0-1.28l11.54-11.67a.88.88,0,0,1,.65-.27.92.92,0,0,1,.64.26.87.87,0,0,1,.27.64.9.9,0,0,1-.26.64L335,220.08a.91.91,0,0,1-.64.27h0Zm11.57-13h0a.4.4,0,0,0-.3.13L334,219.13a.43.43,0,0,0,0,.61.41.41,0,0,0,.29.13h0a.43.43,0,0,0,.3-.13l11.55-11.67a.43.43,0,0,0,.12-.31.42.42,0,0,0-.12-.3A.45.45,0,0,0,345.87,207.33Z"/><path d="M334,215.08a.65.65,0,0,0,.47-.2l6.81-6.88a.67.67,0,0,0,.19-.47h0a.63.63,0,0,0-.2-.47.66.66,0,0,0-.95,0l-6.8,6.88a.66.66,0,0,0-.16.68.74.74,0,0,0,.16.27A.71.71,0,0,0,334,215.08Z"/><path d="M334,215.32a.88.88,0,0,1-.63-.26,1,1,0,0,1-.23-.36.94.94,0,0,1,.22-.93l6.8-6.88a1.12,1.12,0,0,1,.66-.27.9.9,0,0,1,.63.27.88.88,0,0,1,.27.61v0a.87.87,0,0,1-.27.64l-6.8,6.88a.91.91,0,0,1-.64.27h0Zm6.81-8.22h0a.44.44,0,0,0-.31.13l-6.8,6.88a.44.44,0,0,0-.1.44.59.59,0,0,0,.1.17.42.42,0,0,0,.3.12h0a.39.39,0,0,0,.3-.13l6.81-6.87a.45.45,0,0,0,.12-.29v0a.44.44,0,0,0-.43-.43Z"/><path d="M311.48,201.48a.69.69,0,0,0,.47-.2l15.51-15.68a.71.71,0,0,0,.19-.48.65.65,0,0,0-.2-.47.67.67,0,0,0-.47-.19.63.63,0,0,0-.47.2L311,200.34a.66.66,0,0,0,0,.94A.67.67,0,0,0,311.48,201.48Z"/><path d="M311.47,201.71a.9.9,0,0,1-.64-1.54l15.51-15.68a.89.89,0,0,1,.63-.27h0a.91.91,0,0,1,.64,1.55l-15.51,15.68a.9.9,0,0,1-.64.26h0Zm0-.23ZM327,184.7a.41.41,0,0,0-.3.12L311.17,200.5a.43.43,0,0,0,0,.61.43.43,0,0,0,.3.13h0a.43.43,0,0,0,.3-.13l15.51-15.68a.39.39,0,0,0,.12-.3.39.39,0,0,0-.12-.31.42.42,0,0,0-.3-.12Z"/><path d="M314.29,202.59a.65.65,0,0,0,.2.47.66.66,0,0,0,.47.19.71.71,0,0,0,.48-.19l13.83-14a.67.67,0,0,0,.2-.48.65.65,0,0,0-.2-.47.66.66,0,0,0-.48-.19.7.7,0,0,0-.47.19l-13.83,14A.67.67,0,0,0,314.29,202.59Z"/><path d="M315,203.49a.9.9,0,0,1-.64-.26.93.93,0,0,1-.27-.64h0a.91.91,0,0,1,.27-.65l13.83-14a.87.87,0,0,1,.64-.27h0a.9.9,0,0,1,.64.26.91.91,0,0,1,0,1.29l-13.83,14a.88.88,0,0,1-.65.27Zm-.43-.91a.44.44,0,0,0,.13.31.42.42,0,0,0,.3.12h0a.43.43,0,0,0,.31-.12l13.83-14a.39.39,0,0,0,.13-.3.44.44,0,0,0-.13-.31.43.43,0,0,0-.3-.13h0a.49.49,0,0,0-.31.13l-13.83,14a.39.39,0,0,0-.13.3Z"/><path d="M318.29,204.53a.67.67,0,0,0,.47.19.63.63,0,0,0,.47-.2l11.55-11.67a.67.67,0,0,0,.2-.48.72.72,0,0,0-.2-.47.66.66,0,0,0-.48-.19.68.68,0,0,0-.47.19l-11.55,11.68A.67.67,0,0,0,318.29,204.53Z"/><path d="M318.76,205a.88.88,0,0,1-.64-.26h0a.91.91,0,0,1,0-1.29l11.55-11.67a.92.92,0,0,1,1.29,0,.91.91,0,0,1,0,1.29L319.4,204.69a.89.89,0,0,1-.64.27Zm-.31-.6a.43.43,0,0,0,.31.12h0a.38.38,0,0,0,.3-.13l11.55-11.67a.44.44,0,0,0,.13-.31.43.43,0,0,0-.13-.3.42.42,0,0,0-.3-.12h0a.42.42,0,0,0-.3.12l-11.55,11.68A.43.43,0,0,0,318.45,204.36Z"/><path d="M323.79,205a.63.63,0,0,0,.47-.2l6.81-6.87a.71.71,0,0,0,.19-.48.63.63,0,0,0-.2-.47.59.59,0,0,0-.47-.19.67.67,0,0,0-.47.19l-6.81,6.88a.67.67,0,0,0,.48,1.14Z"/><path d="M323.79,205.19a.9.9,0,0,1-.64-.26.92.92,0,0,1,0-1.29l6.81-6.87a.85.85,0,0,1,.64-.27h0a.88.88,0,0,1,.63.26.91.91,0,0,1,.27.64.9.9,0,0,1-.26.64l-6.81,6.88a.89.89,0,0,1-.63.27h0Zm6.8-8.22a.46.46,0,0,0-.31.13l-6.8,6.88a.42.42,0,0,0,0,.61.41.41,0,0,0,.3.12h0a.41.41,0,0,0,.3-.12l6.81-6.88a.43.43,0,0,0,.12-.31.41.41,0,0,0-.12-.3.52.52,0,0,0-.31-.13Z"/><path d="M352.67,210.54l-15.51,15.68a.59.59,0,0,0-.19.47.51.51,0,0,0,0,.21.63.63,0,0,0,.16.26.67.67,0,0,0,.48.2.63.63,0,0,0,.47-.2l15.51-15.68a.67.67,0,0,0,.2-.48.79.79,0,0,0-.2-.47.71.71,0,0,0-.48-.19A.63.63,0,0,0,352.67,210.54Z"/><path d="M337.64,227.6a.93.93,0,0,1-.65-.27,1,1,0,0,1-.22-.36.92.92,0,0,1,0-.29.89.89,0,0,1,.26-.63l15.51-15.68a.91.91,0,0,1,1.55.63.92.92,0,0,1-.26.65l-15.51,15.68A.91.91,0,0,1,337.64,227.6Zm15.5-17a.42.42,0,0,0-.3.12h0l-15.51,15.68a.41.41,0,0,0-.12.31.28.28,0,0,0,0,.13.62.62,0,0,0,.11.17.44.44,0,0,0,.61,0l15.51-15.68a.44.44,0,0,0,.13-.31.41.41,0,0,0-.13-.29A.42.42,0,0,0,353.14,210.58Zm-.47,0Z"/><path d="M341.13,229.13a.68.68,0,0,0,.47-.19l13.84-14a.71.71,0,0,0,.19-.48.65.65,0,0,0-.2-.47.63.63,0,0,0-.47-.19.63.63,0,0,0-.47.2l-13.84,14a.68.68,0,0,0,0,.95A.66.66,0,0,0,341.13,229.13Z"/><path d="M341.12,229.37a.9.9,0,0,1-.64-1.54l13.84-14a.9.9,0,0,1,.63-.27h0a.9.9,0,0,1,.64.26.91.91,0,0,1,.27.65.93.93,0,0,1-.26.64l-13.84,14a.87.87,0,0,1-.64.27h0ZM355,214.05h0a.41.41,0,0,0-.3.12l-13.84,14a.43.43,0,0,0,0,.61.5.5,0,0,0,.31.12h0a.42.42,0,0,0,.3-.12l13.84-14a.42.42,0,0,0,.12-.3.4.4,0,0,0-.13-.31A.41.41,0,0,0,355,214.05Z"/><path d="M344.25,229.93a.66.66,0,0,0,0,.21.77.77,0,0,0,.17.27.68.68,0,0,0,.47.19.67.67,0,0,0,.48-.2l11.54-11.67a.67.67,0,0,0,.2-.48.65.65,0,0,0-.2-.47.68.68,0,0,0-.95,0l-11.55,11.67A.7.7,0,0,0,344.25,229.93Z"/><path d="M344.92,230.84a.9.9,0,0,1-.64-.26,1,1,0,0,1-.27-.65.9.9,0,0,1,.26-.64l11.55-11.67a.91.91,0,0,1,.64-.27h0a.9.9,0,0,1,.64.26.91.91,0,0,1,.27.64.94.94,0,0,1-.26.65l-11.55,11.67a.93.93,0,0,1-.65.27Zm11.55-13h0a.43.43,0,0,0-.31.12l-11.55,11.68a.42.42,0,0,0-.12.3h0a.68.68,0,0,0,0,.14.45.45,0,0,0,.11.17.42.42,0,0,0,.3.12h0a.4.4,0,0,0,.31-.13l11.55-11.67a.42.42,0,0,0,.12-.3.4.4,0,0,0-.13-.31A.42.42,0,0,0,356.47,217.83Z"/><path d="M350,230.83a.67.67,0,0,0,.48-.2l6.8-6.87a.66.66,0,0,0,.19-.48.63.63,0,0,0-.19-.47.69.69,0,0,0-1,0l-6.81,6.88a.69.69,0,0,0,0,.95A.7.7,0,0,0,350,230.83Z"/><path d="M350,231.07a.9.9,0,0,1-.64-.26.91.91,0,0,1,0-1.29l6.8-6.87a.85.85,0,0,1,.65-.27.9.9,0,0,1,.9.9.9.9,0,0,1-.26.64l-6.8,6.88a.91.91,0,0,1-.64.27h0Zm6.81-8.21h0a.42.42,0,0,0-.3.12l-6.8,6.88a.43.43,0,0,0,0,.61.41.41,0,0,0,.3.12h0a.42.42,0,0,0,.3-.12l6.8-6.88a.44.44,0,0,0,.13-.31.43.43,0,0,0-.13-.3A.42.42,0,0,0,356.76,222.86Z"/><path d="M109.5,245.65a7.32,7.32,0,0,1-5.21-2.16L66.37,205.57a7.38,7.38,0,0,1,0-10.42l9.6-9.6a7.36,7.36,0,0,1,10.42,0l37.93,37.92a7.39,7.39,0,0,1,0,10.43l-9.6,9.59A7.3,7.3,0,0,1,109.5,245.65ZM81.18,184.51a6.21,6.21,0,0,0-4.42,1.83l-9.6,9.59a6.26,6.26,0,0,0,0,8.85l37.92,37.92a6.24,6.24,0,0,0,8.85,0l9.6-9.59a6.26,6.26,0,0,0,0-8.85L85.6,186.34A6.21,6.21,0,0,0,81.18,184.51Z"/><path d="M109.51,245.89a7.56,7.56,0,0,1-5.39-2.23L66.2,205.74a7.61,7.61,0,0,1,0-10.76l9.6-9.6a7.6,7.6,0,0,1,10.76,0l37.93,37.92a7.63,7.63,0,0,1,0,10.76l-9.6,9.6A7.56,7.56,0,0,1,109.51,245.89ZM81.18,183.63a7.1,7.1,0,0,0-5,2.08l-9.6,9.6a7.15,7.15,0,0,0,0,10.09l37.92,37.93a7.13,7.13,0,0,0,10.09,0l9.6-9.6a7.15,7.15,0,0,0,0-10.09L86.22,185.71A7.08,7.08,0,0,0,81.18,183.63Zm28.33,61.15a6.42,6.42,0,0,1-4.59-1.91L67,205a6.5,6.5,0,0,1,0-9.18l9.6-9.6a6.49,6.49,0,0,1,9.18,0l37.93,37.92a6.5,6.5,0,0,1,0,9.18l-9.6,9.6A6.45,6.45,0,0,1,109.51,244.78Zm-28.33-60a5.94,5.94,0,0,0-4.25,1.77l-9.6,9.59a6,6,0,0,0,0,8.51l37.92,37.93a6,6,0,0,0,8.51,0l9.6-9.6a6,6,0,0,0,0-8.51L85.43,186.51A5.94,5.94,0,0,0,81.18,184.74Z"/><path d="M83.78,219.9a.56.56,0,0,1-.39-.17,7.36,7.36,0,0,1,0-10.42l6.74-6.75a7.32,7.32,0,0,1,5.21-2.16h0a7.36,7.36,0,0,1,5.22,2.16.57.57,0,0,1,0,.79.56.56,0,0,1-.79,0,6.25,6.25,0,0,0-4.43-1.83h0a6.21,6.21,0,0,0-4.42,1.83l-6.74,6.75a6.23,6.23,0,0,0,0,8.84.57.57,0,0,1-.4,1Z"/><path d="M83.78,220.14a.78.78,0,0,1-.56-.24,7.6,7.6,0,0,1,0-10.76L90,202.4a7.6,7.6,0,0,1,10.76,0,.79.79,0,0,1-1.12,1.12,6,6,0,0,0-8.51,0l-6.75,6.75a6,6,0,0,0,0,8.5.8.8,0,0,1,.24.57.8.8,0,0,1-.8.8Zm11.56-19.5a7.12,7.12,0,0,0-5,2.09l-6.74,6.75a7.12,7.12,0,0,0,0,10.08.32.32,0,0,0,.45-.45,6.47,6.47,0,0,1,0-9.18l6.74-6.74a6.48,6.48,0,0,1,9.19,0,.32.32,0,1,0,.44-.46A7,7,0,0,0,95.34,200.64Z"/><path d="M95.34,228.64a7.32,7.32,0,0,1-5.21-2.16.56.56,0,1,1,.79-.79,6.26,6.26,0,0,0,8.85,0l6.74-6.75a6.25,6.25,0,0,0,0-8.84.56.56,0,1,1,.79-.79,7.36,7.36,0,0,1,0,10.42l-6.74,6.75A7.36,7.36,0,0,1,95.34,228.64Z"/><path d="M95.34,228.88A7.6,7.6,0,0,1,90,226.65a.8.8,0,0,1,1.13-1.13,6,6,0,0,0,8.51,0l6.74-6.75a6,6,0,0,0,0-8.5.8.8,0,0,1,0-1.13.79.79,0,0,1,1.13,0,7.6,7.6,0,0,1,0,10.76l-6.75,6.75A7.58,7.58,0,0,1,95.34,228.88Zm-4.81-3.12a.29.29,0,0,0-.23.1.31.31,0,0,0,0,.45,7.12,7.12,0,0,0,10.08,0l6.75-6.75a7.12,7.12,0,0,0,0-10.08.31.31,0,0,0-.45,0,.32.32,0,0,0-.1.22.33.33,0,0,0,.1.23,6.49,6.49,0,0,1,0,9.18l-6.74,6.75a6.51,6.51,0,0,1-9.19,0A.28.28,0,0,0,90.53,225.76Z"/><path d="M96.91,205.75a1.35,1.35,0,0,1-1-2.3,1.37,1.37,0,0,1,1.91,0,1.35,1.35,0,0,1,.4,1,1.37,1.37,0,0,1-1.35,1.35Zm0-1.58a.22.22,0,0,0-.17.06.24.24,0,0,0,0,.33.2.2,0,0,0,.33,0,.26.26,0,0,0,0-.33A.21.21,0,0,0,96.91,204.17Z"/><path d="M96.91,206a1.59,1.59,0,0,1-1.13-.47,1.56,1.56,0,0,1-.46-1.12,1.57,1.57,0,0,1,.46-1.12,1.62,1.62,0,0,1,2.25,0,1.59,1.59,0,0,1,.47,1.13,1.55,1.55,0,0,1-.47,1.12A1.58,1.58,0,0,1,96.91,206Zm0-2.69a1.08,1.08,0,0,0-1.11,1.1,1.08,1.08,0,0,0,.32.78,1.14,1.14,0,0,0,1.57,0,1.07,1.07,0,0,0,.33-.78,1.11,1.11,0,0,0-.33-.79A1.09,1.09,0,0,0,96.91,203.3Zm0,1.59a.48.48,0,1,1,0-1,.45.45,0,0,1,.33.13.51.51,0,0,1,.13.34.5.5,0,0,1-.46.49Zm0-.47h0Zm0-.25v.23h0Z"/><path d="M101.39,210.24a1.31,1.31,0,0,1-1-.4,1.35,1.35,0,0,1,0-1.91,1.38,1.38,0,0,1,1.91,0,1.3,1.3,0,0,1,.39,1,1.35,1.35,0,0,1-1.35,1.35Zm0-1.59a.24.24,0,0,0-.17.07.24.24,0,0,0,0,.33c.1.11.2.13.33,0a.26.26,0,0,0,0-.33A.23.23,0,0,0,101.4,208.65Z"/><path d="M101.39,210.47a1.57,1.57,0,0,1-1.12-.46,1.59,1.59,0,0,1,0-2.25,1.61,1.61,0,0,1,2.25,0,1.54,1.54,0,0,1,.46,1.13,1.57,1.57,0,0,1-1.59,1.58Zm0-2.68a1.1,1.1,0,0,0-.79,1.88,1.14,1.14,0,0,0,1.57,0,1.09,1.09,0,0,0,.33-.78,1.11,1.11,0,0,0-.33-.79A1.09,1.09,0,0,0,101.4,207.79Zm0,1.59h0a.48.48,0,0,1-.33-.16.47.47,0,0,1-.14-.33.48.48,0,0,1,.14-.34.47.47,0,0,1,.34-.13.43.43,0,0,1,.32.13.49.49,0,0,1,0,.67A.47.47,0,0,1,101.39,209.38Zm0-.47h0Zm0-.26v.24h0Z"/><path d="M105.88,214.72a1.35,1.35,0,0,1-.95-2.3,1.38,1.38,0,0,1,1.91,0,1.34,1.34,0,0,1,.39,1,1.33,1.33,0,0,1-1.35,1.35Zm0-1.58a.24.24,0,0,0-.16.4c.11.12.21.12.33,0a.27.27,0,0,0,0-.33A.24.24,0,0,0,105.88,213.14Z"/><path d="M105.88,215a1.57,1.57,0,0,1-1.12-.46,1.59,1.59,0,0,1,0-2.25,1.61,1.61,0,0,1,2.25,0,1.59,1.59,0,0,1-1.13,2.71Zm0-2.68a1.1,1.1,0,1,0,.79,1.88,1.1,1.1,0,0,0-.79-1.88Zm0,1.59a.47.47,0,0,1-.33-.16.47.47,0,1,1,.67-.67.5.5,0,0,1,0,.67A.51.51,0,0,1,105.88,213.87Zm0-.48h0Zm0-.25v.24h0Z"/><path d="M91.07,211.08a1.32,1.32,0,0,1-.95-.4,1.35,1.35,0,0,1,0-1.91,1.38,1.38,0,0,1,1.91,0,1.36,1.36,0,0,1,0,1.91A1.35,1.35,0,0,1,91.07,211.08Zm0-1.59a.24.24,0,0,0-.16.4.2.2,0,0,0,.33,0,.24.24,0,0,0,0-.33A.24.24,0,0,0,91.07,209.49Z"/><path d="M91.07,211.32A1.6,1.6,0,0,1,90,208.6a1.63,1.63,0,0,1,1.12-.45h0a1.6,1.6,0,0,1,1.13.45,1.6,1.6,0,0,1-1.13,2.72Zm0-2.69h0a1.1,1.1,0,0,0-.78.31,1.13,1.13,0,0,0,0,1.58,1.15,1.15,0,0,0,1.57,0,1.1,1.1,0,0,0-.79-1.88Zm0,1.59a.47.47,0,0,1-.33-.16.48.48,0,0,1-.14-.34.47.47,0,0,1,.14-.33.46.46,0,0,1,.33-.13.48.48,0,0,1,0,1Z"/><path d="M95.56,215.56a1.35,1.35,0,0,1-1.35-1.35,1.31,1.31,0,0,1,.4-1,1.38,1.38,0,0,1,1.91,0,1.35,1.35,0,0,1-1,2.3Zm0-1.58a.24.24,0,0,0-.23.23.24.24,0,0,0,.07.17.2.2,0,0,0,.33,0,.22.22,0,0,0,.06-.17.21.21,0,0,0-.06-.16A.24.24,0,0,0,95.56,214Z"/><path d="M95.56,215.8a1.58,1.58,0,0,1-1.12-2.71,1.55,1.55,0,0,1,1.12-.45h0a1.6,1.6,0,0,1,1.13.45,1.62,1.62,0,0,1,.46,1.12,1.59,1.59,0,0,1-1.59,1.59Zm0-2.68h0a1.08,1.08,0,0,0-.78.31,1.11,1.11,0,0,0-.33.78,1.11,1.11,0,0,0,1.9.79,1.12,1.12,0,0,0,0-1.57A1.12,1.12,0,0,0,95.56,213.12Zm0,1.59a.51.51,0,0,1-.33-.16.48.48,0,0,1-.14-.34.47.47,0,0,1,.14-.33.48.48,0,0,1,.67,0,.5.5,0,0,1,0,.67A.53.53,0,0,1,95.56,214.71Z"/><path d="M100.05,220.05a1.35,1.35,0,0,1-1-2.3,1.38,1.38,0,0,1,1.91,0,1.33,1.33,0,0,1,0,1.9A1.31,1.31,0,0,1,100.05,220.05Zm0-1.58a.24.24,0,0,0-.17.07.22.22,0,0,0,0,.32c.13.13.21.13.33,0a.22.22,0,0,0,0-.32A.22.22,0,0,0,100.05,218.47Z"/><path d="M100.05,220.29a1.62,1.62,0,0,1-1.13-.47,1.59,1.59,0,1,1,2.25-2.24,1.58,1.58,0,0,1,.47,1.12,1.55,1.55,0,0,1-.47,1.12A1.58,1.58,0,0,1,100.05,220.29Zm0-2.69a1.12,1.12,0,0,0-.79.32,1.1,1.1,0,0,0,0,1.56,1.12,1.12,0,0,0,1.57,0,1,1,0,0,0,.33-.78,1.07,1.07,0,0,0-.33-.78A1.08,1.08,0,0,0,100.05,217.6Zm0,1.59a.49.49,0,0,1-.34-.16.47.47,0,0,1,0-.66.49.49,0,0,1,.34-.14.46.46,0,0,1,.33.14.47.47,0,0,1,.14.33.52.52,0,0,1-.47.49Zm0-.48Zm0-.24v0Z"/><path d="M85.75,216.91a1.35,1.35,0,1,1,1-2.3,1.31,1.31,0,0,1,.4.95,1.35,1.35,0,0,1-1.35,1.35Zm0-1.58a.27.27,0,0,0-.17.06.25.25,0,0,0-.07.17.22.22,0,0,0,.07.16.2.2,0,0,0,.33,0,.22.22,0,0,0,.07-.16.24.24,0,0,0-.23-.23Z"/><path d="M85.75,217.15a1.57,1.57,0,0,1-1.59-1.59,1.57,1.57,0,0,1,.46-1.12,1.6,1.6,0,0,1,1.13-.46h0a1.59,1.59,0,0,1,1.59,1.58,1.59,1.59,0,0,1-1.59,1.59Zm0-2.69a1.11,1.11,0,0,0-.79,1.89,1.16,1.16,0,0,0,1.57,0,1.11,1.11,0,0,0,.33-.79,1.09,1.09,0,0,0-.33-.78,1.1,1.1,0,0,0-.78-.32Zm0,1.59a.47.47,0,0,1-.34-.16.44.44,0,0,1-.13-.33.47.47,0,0,1,.8-.33.46.46,0,0,1,0,.66A.47.47,0,0,1,85.75,216.05Zm0-.47h0Z"/><path d="M90.23,221.4a1.32,1.32,0,0,1-1-.4,1.35,1.35,0,0,1,0-1.91,1.38,1.38,0,0,1,1.91,0,1.36,1.36,0,0,1,0,1.91A1.35,1.35,0,0,1,90.23,221.4Zm0-1.58a.19.19,0,0,0-.16.07.22.22,0,0,0,0,.32.2.2,0,0,0,.33,0,.24.24,0,0,0,0-.33A.22.22,0,0,0,90.23,219.82Z"/><path d="M90.23,221.64a1.6,1.6,0,0,1-1.12-2.72,1.63,1.63,0,0,1,2.25,0,1.6,1.6,0,0,1-1.13,2.72Zm0-2.69a1.1,1.1,0,0,0-.78.31,1.13,1.13,0,0,0,0,1.58,1.15,1.15,0,0,0,1.57,0,1.1,1.1,0,0,0-.79-1.88Zm0,1.59a.48.48,0,0,1,0-1,.48.48,0,0,1,.48.47.48.48,0,0,1-.14.33A.47.47,0,0,1,90.23,220.54Z"/><path d="M94.72,225.89a1.31,1.31,0,0,1-1-.4,1.35,1.35,0,0,1,0-1.91,1.38,1.38,0,0,1,1.91,0,1.36,1.36,0,0,1,0,1.91A1.35,1.35,0,0,1,94.72,225.89Zm0-1.59a.27.27,0,0,0-.17.07.25.25,0,0,0,0,.33.2.2,0,0,0,.33,0,.24.24,0,0,0,0-.33A.24.24,0,0,0,94.72,224.3Z"/><path d="M94.72,226.12a1.57,1.57,0,0,1-1.12-.46,1.61,1.61,0,1,1,1.12.46Zm0-2.68a1.09,1.09,0,0,0-.78.31,1.12,1.12,0,0,0,0,1.57,1.14,1.14,0,0,0,1.57,0,1.1,1.1,0,0,0-.79-1.88Zm0,1.59a.45.45,0,0,1-.33-.16.47.47,0,0,1,0-.67.51.51,0,0,1,.34-.14.48.48,0,0,1,.34.81A.49.49,0,0,1,94.72,225Z"/><path d="M91.71,206.13a1.38,1.38,0,0,1-1-.39,1.36,1.36,0,0,1,0-1.91,1.35,1.35,0,0,1,1-.4h0a1.31,1.31,0,0,1,1,.4,1.33,1.33,0,0,1,0,1.9A1.31,1.31,0,0,1,91.71,206.13Zm0-1.58a.24.24,0,0,0-.17.07.24.24,0,0,0,0,.33c.12.11.21.12.33,0a.22.22,0,0,0,0-.32A.23.23,0,0,0,91.71,204.55Z"/><path d="M91.71,206.37a1.56,1.56,0,0,1-1.12-.46,1.6,1.6,0,0,1,0-2.25,1.63,1.63,0,0,1,2.25,0,1.55,1.55,0,0,1,.47,1.12,1.57,1.57,0,0,1-.47,1.12A1.58,1.58,0,0,1,91.71,206.37Zm0-2.7a1.15,1.15,0,0,0-.79.32,1.11,1.11,0,0,0,1.57,1.58,1.11,1.11,0,0,0,.33-.79,1.15,1.15,0,0,0-.32-.79A1.16,1.16,0,0,0,91.71,203.67Zm0,1.6a.48.48,0,0,1-.33-.15.47.47,0,1,1,.66-.67.45.45,0,0,1,0,.66.44.44,0,0,1-.33.16Zm0-.47h0Z"/><path d="M96.2,210.62a1.35,1.35,0,1,1,1-2.31,1.35,1.35,0,0,1,0,1.91A1.32,1.32,0,0,1,96.2,210.62Zm0-1.58a.22.22,0,0,0-.17.06.25.25,0,0,0,0,.34.2.2,0,0,0,.33,0,.24.24,0,0,0,0-.33A.25.25,0,0,0,96.2,209Z"/><path d="M96.2,210.86a1.59,1.59,0,1,1,1.12-2.72,1.6,1.6,0,0,1-1.12,2.72Zm0-2.69a1.11,1.11,0,0,0-.79.31,1.13,1.13,0,0,0,0,1.58,1.15,1.15,0,0,0,1.57,0,1.12,1.12,0,0,0,0-1.57A1.1,1.1,0,0,0,96.2,208.17Zm0,1.59a.49.49,0,0,1-.34-.82.47.47,0,1,1,.67.66A.45.45,0,0,1,96.2,209.76Z"/><path d="M100.68,215.11a1.35,1.35,0,0,1-1-2.31,1.35,1.35,0,0,1,2.3,1,1.34,1.34,0,0,1-.39,1A1.37,1.37,0,0,1,100.68,215.11Zm0-1.59a.23.23,0,0,0-.16.07.24.24,0,0,0-.07.17.23.23,0,0,0,.07.16.2.2,0,0,0,.33,0,.23.23,0,0,0,.07-.16.24.24,0,0,0-.24-.24Z"/><path d="M100.68,215.35a1.59,1.59,0,1,1,0-3.17h0a1.55,1.55,0,0,1,1.58,1.58,1.6,1.6,0,0,1-1.59,1.59Zm0-2.69a1.1,1.1,0,0,0-.79,1.88,1.14,1.14,0,0,0,1.57,0,1.1,1.1,0,0,0,0-1.57,1.1,1.1,0,0,0-.78-.31Zm0,1.59a.51.51,0,0,1-.33-.16.47.47,0,0,1-.14-.33.48.48,0,0,1,1,0,.47.47,0,0,1-.14.33A.51.51,0,0,1,100.68,214.25Z"/><path d="M105.17,219.59a1.35,1.35,0,0,1-1-2.3,1.38,1.38,0,0,1,1.91,0,1.36,1.36,0,0,1,0,1.91A1.38,1.38,0,0,1,105.17,219.59Zm0-1.58a.24.24,0,0,0-.16.4c.11.12.21.12.33,0a.24.24,0,0,0,0-.33A.24.24,0,0,0,105.17,218Z"/><path d="M105.17,219.83a1.57,1.57,0,0,1-1.12-.46,1.59,1.59,0,0,1,0-2.25,1.62,1.62,0,0,1,2.24,0,1.58,1.58,0,0,1-1.12,2.71Zm0-2.69a1.08,1.08,0,0,0-.78.32,1.1,1.1,0,0,0,0,1.57,1.14,1.14,0,0,0,1.57,0,1.11,1.11,0,0,0-.79-1.89Zm0,1.6a.49.49,0,0,1-.33-.16.47.47,0,0,1,0-.67.49.49,0,0,1,.67,0,.47.47,0,0,1,.13.34.51.51,0,0,1-.13.33A.53.53,0,0,1,105.17,218.74Z"/><path d="M86,211.62a1.35,1.35,0,0,1-1-.4,1.32,1.32,0,0,1-.39-.94,1.35,1.35,0,0,1,2.3-1,1.35,1.35,0,0,1-.95,2.3ZM86,210a.21.21,0,0,0-.16.07.19.19,0,0,0-.07.16.23.23,0,0,0,.06.16c.13.13.22.13.33,0a.22.22,0,0,0,.07-.17.23.23,0,0,0-.07-.16A.22.22,0,0,0,86,210Z"/><path d="M86,211.86a1.58,1.58,0,0,1-1.12-.47,1.54,1.54,0,0,1-.47-1.11,1.58,1.58,0,0,1,.46-1.13,1.65,1.65,0,0,1,1.13-.46h0a1.58,1.58,0,0,1,1.12,2.71A1.6,1.6,0,0,1,86,211.86Zm0-2.69h0a1.13,1.13,0,0,0-.79.32,1.1,1.1,0,0,0-.32.79,1.06,1.06,0,0,0,.32.77,1.13,1.13,0,0,0,1.57,0,1.11,1.11,0,0,0,.33-.78,1.07,1.07,0,0,0-.33-.79A1.09,1.09,0,0,0,86,209.17Zm0,1.6a.49.49,0,0,1-.34-.17.5.5,0,0,1-.13-.33.47.47,0,0,1,.8-.33.47.47,0,0,1,.14.33.49.49,0,0,1-.14.34.5.5,0,0,1-.33.16Z"/><path d="M90.53,216.11a1.38,1.38,0,0,1-1-.39,1.36,1.36,0,0,1,0-1.91,1.38,1.38,0,0,1,1.91,0,1.36,1.36,0,0,1,0,1.92A1.34,1.34,0,0,1,90.53,216.11Zm0-1.58a.22.22,0,0,0-.17.06.25.25,0,0,0,0,.34c.12.12.21.11.33,0a.25.25,0,0,0,0-.34A.21.21,0,0,0,90.53,214.53Z"/><path d="M90.53,216.35a1.59,1.59,0,1,1,0-3.17h0a1.57,1.57,0,0,1,1.59,1.58,1.55,1.55,0,0,1-.47,1.12A1.58,1.58,0,0,1,90.53,216.35Zm0-2.69a1.1,1.1,0,0,0-.79,1.89,1.15,1.15,0,0,0,1.57,0,1.11,1.11,0,0,0,0-1.58,1.1,1.1,0,0,0-.78-.31Zm0,1.59a.48.48,0,1,1,.33-.82.45.45,0,0,1,0,.66A.47.47,0,0,1,90.53,215.25Zm0-.47h0Zm0-.25v.24h0Z"/><path d="M95,220.6a1.36,1.36,0,0,1-1-2.31,1.35,1.35,0,0,1,2.3,1,1.34,1.34,0,0,1-.39.95A1.32,1.32,0,0,1,95,220.6ZM95,219a.27.27,0,0,0-.17.06.24.24,0,0,0-.07.17.23.23,0,0,0,.07.16.2.2,0,0,0,.33,0,.26.26,0,0,0,0-.33A.26.26,0,0,0,95,219Z"/><path d="M95,220.84a1.6,1.6,0,0,1-1.12-.47,1.61,1.61,0,0,1,0-2.25,1.63,1.63,0,0,1,2.25,0,1.61,1.61,0,0,1,.46,1.13,1.54,1.54,0,0,1-.46,1.12A1.59,1.59,0,0,1,95,220.84Zm0-2.69a1.09,1.09,0,0,0-1.12,1.1,1.07,1.07,0,0,0,.33.78,1.13,1.13,0,0,0,1.57,0,1.07,1.07,0,0,0,.33-.78,1.09,1.09,0,0,0-1.11-1.1Zm0,1.59a.47.47,0,0,1-.34-.16.45.45,0,0,1-.14-.33.48.48,0,0,1,.14-.34.5.5,0,0,1,.67,0,.51.51,0,0,1,.13.34.47.47,0,0,1-.13.33.44.44,0,0,1-.33.16Zm0-.48h0Z"/><path d="M99.5,225.09a1.37,1.37,0,0,1-1.35-1.35,1.35,1.35,0,0,1,.4-1,1.35,1.35,0,0,1,2.3,1,1.35,1.35,0,0,1-1.35,1.35Zm0-1.59a.23.23,0,0,0-.16.07.24.24,0,0,0-.07.17.23.23,0,0,0,.07.16.2.2,0,0,0,.33,0,.21.21,0,0,0,.06-.16.19.19,0,0,0-.06-.17A.24.24,0,0,0,99.5,223.5Z"/><path d="M99.5,225.33a1.59,1.59,0,0,1-1.12-2.72,1.65,1.65,0,0,1,2.25,0,1.6,1.6,0,0,1-1.13,2.72Zm0-2.69a1.09,1.09,0,0,0-.78.31,1.11,1.11,0,0,0-.33.79,1.11,1.11,0,0,0,1.9.78,1.12,1.12,0,0,0,0-1.57A1.11,1.11,0,0,0,99.5,222.64Zm0,1.59a.48.48,0,0,1-.33-.16.47.47,0,0,1-.14-.33.48.48,0,0,1,.14-.34.45.45,0,0,1,.33-.13.43.43,0,0,1,.33.13.48.48,0,0,1,.14.34.47.47,0,0,1-.14.33.44.44,0,0,1-.33.16Z"/><path d="M81.18,245.65A7.34,7.34,0,0,1,76,243.49l-9.6-9.59a7.39,7.39,0,0,1,0-10.43L74.86,215a.56.56,0,0,1,.79.79l-8.49,8.49a6.26,6.26,0,0,0,0,8.85l9.6,9.59a6.25,6.25,0,0,0,8.84,0l8.5-8.49a.56.56,0,0,1,.79.79l-8.5,8.49A7.32,7.32,0,0,1,81.18,245.65Z"/><path d="M81.18,245.89a7.54,7.54,0,0,1-5.38-2.23l-9.6-9.6a7.61,7.61,0,0,1,0-10.76l8.49-8.49a.79.79,0,0,1,.56-.23h0a.79.79,0,0,1,.56.23.8.8,0,0,1,0,1.13l-8.49,8.49a6,6,0,0,0,0,8.51l9.6,9.6a6,6,0,0,0,8.51,0l8.49-8.49a.8.8,0,0,1,1.13,0,.79.79,0,0,1,0,1.12l-8.5,8.49A7.52,7.52,0,0,1,81.18,245.89Zm-5.93-30.83a.31.31,0,0,0-.22.09l-8.49,8.49a7.15,7.15,0,0,0,0,10.09l9.6,9.6a7.15,7.15,0,0,0,10.08,0l8.5-8.49a.33.33,0,0,0-.46-.46l-8.49,8.49a6.5,6.5,0,0,1-9.18,0l-9.6-9.6a6.49,6.49,0,0,1,0-9.18l8.49-8.49a.33.33,0,0,0,0-.45.32.32,0,0,0-.23-.09Z"/><path d="M115.43,214.23a.57.57,0,0,1-.39-1l8.49-8.49a6.28,6.28,0,0,0,0-8.85l-9.6-9.59a6.26,6.26,0,0,0-8.85,0l-8.49,8.49a.56.56,0,1,1-.79-.79l8.49-8.49a7.38,7.38,0,0,1,10.43,0l9.6,9.6a7.38,7.38,0,0,1,0,10.42l-8.49,8.49A.58.58,0,0,1,115.43,214.23Z"/><path d="M115.43,214.47a.81.81,0,0,1-.56-1.37l8.49-8.49a6,6,0,0,0,0-8.51l-9.6-9.59a6,6,0,0,0-8.51,0L96.76,195a.8.8,0,1,1-1.13-1.13l8.49-8.49a7.62,7.62,0,0,1,10.77,0l9.6,9.6a7.63,7.63,0,0,1,0,10.76L116,214.23A.84.84,0,0,1,115.43,214.47Zm-5.92-30.2a6.44,6.44,0,0,1,4.59,1.9l9.6,9.6a6.5,6.5,0,0,1,0,9.18l-8.5,8.49a.32.32,0,0,0,.46.45l8.49-8.49a7.15,7.15,0,0,0,0-10.09l-9.6-9.6a7.15,7.15,0,0,0-10.09,0L96,194.21a.32.32,0,1,0,.45.45l8.49-8.49A6.45,6.45,0,0,1,109.51,184.27Z"/><path class="cls-39" d="M266.66,220.13H262.8a1.14,1.14,0,0,0-.64-.34.59.59,0,0,0-.19-.05h-.55c-.31,0-.63,0-.95,0H248.89v-10.4a20.48,20.48,0,0,0,5.32-5.53c.88-1.49,2-4.2,3-11.8.08-.59.15-1.21.23-1.86,2.74-.89,5-3.17,6.73-6.48a27.77,27.77,0,0,0,2.66-8.78c.76-5.2-.23-9.83-2.72-12.7a8.56,8.56,0,0,0-3.16-2.34,7.15,7.15,0,0,0-1.23-.43,63.17,63.17,0,0,0,.95-9.78c0-.52,0-1,0-1.58v-8.06h0a.61.61,0,0,0,0-.14,26.32,26.32,0,0,0-26.25-26H216.47a26.3,26.3,0,0,0-26.26,26.26V148a64.94,64.94,0,0,0,1,11.35,8.7,8.7,0,0,0-4.39,2.78c-2.49,2.87-3.48,7.49-2.72,12.69.92,6.52,3.37,11.38,6.75,13.85a9.32,9.32,0,0,0,2.65,1.42c1,9.06,2.25,12,3.19,13.66a18.14,18.14,0,0,0,3.74,4.24c.5.43,1,.86,1.59,1.29v10.4h-9.09a1.16,1.16,0,0,0-.76.29h-3.09a1.23,1.23,0,0,0-.26-.12,1.12,1.12,0,0,0-.41-.09c-.16,0-.31,0-.46,0-.72,0-1.42.09-2.12.16h0c-13.14,1.33-24.14,8.2-30.56,18.19l-.09.14c-.6.94-1.15,1.9-1.66,2.89l-.16.29c-.48,1-.93,1.94-1.34,2.93-.05.14-.1.28-.16.42-.38,1-.73,2-1,3l-.13.49c-.29,1-.55,2-.75,3.09,0,.16-.06.33-.09.49-.2,1.07-.36,2.14-.46,3.23,0,.15,0,.29,0,.44-.09,1.08-.15,2.17-.15,3.27,0,.07,0,.14,0,.21v28.59a1.17,1.17,0,0,0,1.17,1.17H300.59a1.17,1.17,0,0,0,1.17-1.17V259C301.76,238.93,287.32,222.94,266.66,220.13Z"/><path class="cls-36" d="M263.19,218.39s0,0,0,0h-3.83a1.14,1.14,0,0,0-.82-.4H258c-.33,0-.64,0-1,0H245.41l0-10.41a20.44,20.44,0,0,0,5.31-5.53c.95-1.6,2.16-4.62,3.21-13.66,4.74-1.53,8.23-7.14,9.38-15.25.76-5.21-.23-9.85-2.7-12.7a8.77,8.77,0,0,0-4.41-2.78,63.38,63.38,0,0,0,1-11.35v-8.07c0-.05,0-.11,0-.14a26.33,26.33,0,0,0-26.26-26H213a26.3,26.3,0,0,0-26.26,26.26v7.92a65.11,65.11,0,0,0,1,11.35,8.63,8.63,0,0,0-4.39,2.78c-2.49,2.87-3.48,7.49-2.72,12.69,1.15,8.12,4.63,13.73,9.4,15.26,1,9.06,2.26,12.06,3.19,13.66a20.55,20.55,0,0,0,5.33,5.53v10.41h-9.1a1.16,1.16,0,0,0-.76.29h-3.09a1.29,1.29,0,0,0-.66-.21c-.78,0-1.53.14-2.3.21h-.31l0,0c-21,2.15-36.62,18.5-36.62,39.05v28.59a1.17,1.17,0,0,0,1.17,1.17H297.12a1.17,1.17,0,0,0,1.17-1.17V257.3C298.29,237.2,283.85,221.21,263.19,218.39Z"/><path class="cls-38" d="M188.71,259.53a6.42,6.42,0,1,0,6.4,6.43A6.41,6.41,0,0,0,188.71,259.53Z"/><path d="M263.19,218.4a1.19,1.19,0,0,0-.94.27,1.21,1.21,0,0,0-.4.89v11.59a1.17,1.17,0,0,0,1.18,1.17h.54a16.36,16.36,0,0,1,16.33,16.05h-2.61a13.75,13.75,0,0,0-.28-2.48,13.53,13.53,0,0,0-.8-2.58,13.69,13.69,0,0,0-2.94-4.36,14,14,0,0,0-2-1.67,13.52,13.52,0,0,0-2.33-1.27,13.81,13.81,0,0,0-5.34-1.08h-5.64a13.77,13.77,0,0,0-5.34,1.08,13.52,13.52,0,0,0-2.33,1.27,14,14,0,0,0-2,1.67,13.69,13.69,0,0,0-2.94,4.36,14.32,14.32,0,0,0-.81,2.58,13.74,13.74,0,0,0-.27,2.48H241.6a16.36,16.36,0,0,1,16.33-16.05h.54a1.17,1.17,0,0,0,1.17-1.17v-12a1.17,1.17,0,0,0-1.13-1.17l-.56,0c-.31,0-.63,0-.95,0H245.42v-10.4a20.48,20.48,0,0,0,5.32-5.53c.95-1.61,2.16-4.62,3.2-13.67,4.74-1.53,8.23-7.14,9.39-15.25.76-5.21-.23-9.84-2.72-12.71a8.6,8.6,0,0,0-4.39-2.76,64.43,64.43,0,0,0,1-11.36v-8.07a.76.76,0,0,0,0-.15,26.32,26.32,0,0,0-26.25-26H213a26.29,26.29,0,0,0-26.26,26.26v7.92a64.27,64.27,0,0,0,1,11.36,8.68,8.68,0,0,0-4.4,2.77c-2.48,2.87-3.47,7.5-2.71,12.69,1.15,8.12,4.63,13.74,9.39,15.27,1,9.05,2.25,12.05,3.2,13.65a20.52,20.52,0,0,0,5.32,5.54v10.4h-9.09a1.16,1.16,0,0,0-1.13.85,81.14,81.14,0,0,0-1.47,37,1.2,1.2,0,0,0,1.27.93l.39-.05a3.89,3.89,0,0,1,.49,0,9.69,9.69,0,1,1-4.56,1.22,1.19,1.19,0,0,0,.58-1.29,81.07,81.07,0,0,1,1.11-37,1.21,1.21,0,0,0-.22-1,1.25,1.25,0,0,0-1-.44c-22.38,1-39.26,17.87-39.26,39.29v28.57a1.18,1.18,0,0,0,1.18,1.18H297.11a1.18,1.18,0,0,0,1.18-1.18V257.31C298.29,237.2,283.85,221.2,263.19,218.4Zm32.75,66.31H148v-27.4c0-19.63,15.12-35.21,35.42-36.84a84,84,0,0,0-.9,35.75,11.82,11.82,0,1,0,6.45-2h-.05a79.15,79.15,0,0,1,1.39-34h9.38a1.17,1.17,0,0,0,1.17-1.17V206.94a1.17,1.17,0,0,0-.49-.95,18.56,18.56,0,0,1-5.15-5.19c-.46-.76-1.85-3.1-3-13.51a1.17,1.17,0,0,0-.91-1c-4.18-.9-7.32-6-8.4-13.53-.66-4.52.13-8.46,2.17-10.82a6.27,6.27,0,0,1,4.12-2.2,1.18,1.18,0,0,0,.82-.47,1.21,1.21,0,0,0,.2-.92,61.53,61.53,0,0,1-1.16-12.07v-7.92A23.94,23.94,0,0,1,213,114.43H231a24,24,0,0,1,23.91,23.76.53.53,0,0,0,0,.13v7.94a61.6,61.6,0,0,1-1.16,12.07,1.18,1.18,0,0,0,1,1.4,6.22,6.22,0,0,1,4.12,2.19c2,2.35,2.83,6.3,2.17,10.83-1.09,7.57-4.23,12.62-8.4,13.52a1.17,1.17,0,0,0-.92,1c-1.13,10.41-2.52,12.75-3,13.52a18.73,18.73,0,0,1-5.16,5.18,1.17,1.17,0,0,0-.49.95v12.17a1.18,1.18,0,0,0,.35.83,1.16,1.16,0,0,0,.83.34H257.3V230a18.71,18.71,0,0,0-18.05,18.67v.9a1.17,1.17,0,0,0,1.17,1.17h5a1.17,1.17,0,0,0,1.17-1.17v-.9a11.7,11.7,0,0,1,.23-2.29,12,12,0,0,1,.67-2.13,11.23,11.23,0,0,1,2.44-3.62,12.27,12.27,0,0,1,1.68-1.39,11.33,11.33,0,0,1,1.94-1,11.16,11.16,0,0,1,4.42-.9h5.64a11.16,11.16,0,0,1,4.42.9,10.64,10.64,0,0,1,1.93,1,11.08,11.08,0,0,1,1.69,1.38,11.56,11.56,0,0,1,2.44,3.62,11.19,11.19,0,0,1,.66,2.13,11.7,11.7,0,0,1,.23,2.29v.9a1.18,1.18,0,0,0,1.18,1.17h4.95a1.18,1.18,0,0,0,1.18-1.17v-.9A18.71,18.71,0,0,0,264.2,230v-9.06c18.76,3.14,31.74,17.92,31.74,36.39Z"/><path d="M246.83,199.68c1.14-1.94,2.14-7,2.87-14.55l.1-1,1.72.15c3.36,0,6.3-4.77,7.32-11.79.56-3.9,0-7.2-1.66-9.07a4.43,4.43,0,0,0-3.35-1.45,1.12,1.12,0,0,0-1.18.84,43.5,43.5,0,0,1-1.51,4.33c-.74-3.92-1.89-10.07-2.41-12.77-.27-1.37-.6-3.07-.94-4.94a1.16,1.16,0,0,0-1.15-1,162.14,162.14,0,0,1-24.84-1.94c-13.39-2.31-20.09-6-22.35-7.49a1.19,1.19,0,0,0-1.14-.08,1.17,1.17,0,0,0-.67.93c-.62,5.22-1.65,10.56-2.33,14.09l-.08.45c-.52,2.66-1.67,8.79-2.41,12.71a44.13,44.13,0,0,1-1.51-4.32,1.11,1.11,0,0,0-1.18-.85,4.47,4.47,0,0,0-3.35,1.45c-1.62,1.87-2.22,5.17-1.65,9.06,1,7,4,11.78,7.57,11.78a1.23,1.23,0,0,0,.39-.07l1.06-.07.1,1.06c.74,7.58,1.73,12.61,2.89,14.55,2.72,4.6,12.86,11,24.84,11S244.1,204.28,246.83,199.68Zm-47.67-1.2c-.45-.75-1.6-3.59-2.57-13.57l-.21-2.2a1.18,1.18,0,0,0-1.17-1.07h-.08l-2.21.15a2.06,2.06,0,0,0-.38,0c-1.85-.19-4.21-3.59-5.09-9.75-.45-3.13,0-5.88,1.11-7.2a1.72,1.72,0,0,1,.8-.5,34.49,34.49,0,0,0,2.95,7,1.18,1.18,0,0,0,2.16-.4s2.27-12.15,3.06-16.22l.09-.44c.61-3.17,1.5-7.76,2.12-12.47,3.33,1.86,10.13,4.9,21.66,6.88a159.87,159.87,0,0,0,24.26,2c.27,1.51.54,2.88.77,4.07.78,4.07,3.06,16.22,3.06,16.22a1.18,1.18,0,0,0,2.16.4,34.49,34.49,0,0,0,2.95-7,1.64,1.64,0,0,1,.8.5c1.14,1.32,1.56,4.08,1.11,7.2-.87,6-3.28,9.76-4.9,9.79l-2.77-.24a1.16,1.16,0,0,0-1.26,1l-.22,2.21c-1,10-2.11,12.82-2.55,13.58-2.43,4.1-12.29,9.82-22.83,9.82S201.58,202.59,199.16,198.48Z"/><path d="M280.34,250.93h-3.5a1.17,1.17,0,0,0-1.17,1.17V263a12.12,12.12,0,0,1-6.76,10.85,5.9,5.9,0,0,0-2.93-.25,5.54,5.54,0,0,0-3.61,2.16,3.82,3.82,0,0,0,.92,5.5,5.35,5.35,0,0,0,3.11.95,5.75,5.75,0,0,0,1-.09,5.29,5.29,0,0,0,4.08-3,18,18,0,0,0,10-16.09V252.1A1.17,1.17,0,0,0,280.34,250.93ZM279.17,263a15.67,15.67,0,0,1-9.12,14.18,1.15,1.15,0,0,0-.65.79,2.86,2.86,0,0,1-2.37,1.84,3.32,3.32,0,0,1-2.38-.46,1.49,1.49,0,0,1-.37-2.22,3.19,3.19,0,0,1,2.09-1.21,4.3,4.3,0,0,1,.61-.05,3.26,3.26,0,0,1,1.43.32,1.2,1.2,0,0,0,1,0A14.47,14.47,0,0,0,278,263v-9.72h1.15Z"/><path d="M240.87,209.73a1.16,1.16,0,0,0-.56-1,1.2,1.2,0,0,0-1.15,0,37.42,37.42,0,0,1-34.37,0,1.16,1.16,0,0,0-1.14,0,1.17,1.17,0,0,0-.56,1v9.38c0,11,8.3,19.61,18.89,19.61s18.88-8.61,18.88-19.61Zm-2.36,9.38c0,9.68-7.26,17.27-16.53,17.27s-16.54-7.59-16.54-17.27v-7.52a39.6,39.6,0,0,0,33.08,0Z"/><path d="M255.51,273.6a5.88,5.88,0,0,0-2.92.25A12.11,12.11,0,0,1,245.82,263V252.1a1.17,1.17,0,0,0-1.17-1.17h-3.5A1.17,1.17,0,0,0,240,252.1V263a18,18,0,0,0,10,16.09,5.31,5.31,0,0,0,4.08,3,5.83,5.83,0,0,0,1,.09,5.33,5.33,0,0,0,3.11-.95,3.93,3.93,0,0,0,1.65-2.55,4,4,0,0,0-.72-2.95A5.56,5.56,0,0,0,255.51,273.6Zm1.33,5.75a3.3,3.3,0,0,1-2.37.46h0A2.86,2.86,0,0,1,252.1,278a1.15,1.15,0,0,0-.65-.79A15.66,15.66,0,0,1,242.33,263v-9.72h1.15V263a14.47,14.47,0,0,0,8.61,13.21,1.2,1.2,0,0,0,1,0,3.32,3.32,0,0,1,2-.27,3.23,3.23,0,0,1,2.08,1.21,1.63,1.63,0,0,1,.32,1.19A1.6,1.6,0,0,1,256.84,279.35Z"/></g></g></svg>