<svg id="_Layer_" data-name="&lt;Layer&gt;" xmlns="http://www.w3.org/2000/svg" viewBox="0 0 2760 1840"><defs><style>.cls-1{fill:#ebf3fa;}.cls-2{opacity:0.5;}.cls-3{fill:#98baf4;}.cls-4{fill:#edf4ff;}.cls-5{fill:#ebf3ff;}.cls-6{fill:#fff;}.cls-7{fill:#afcdfb;}.cls-8{fill:#7fa8e5;}.cls-9{fill:#dfebfd;}.cls-10{fill:#cce1ff;}.cls-11{fill:#bdd7fd;}.cls-12{fill:#d4e6ff;}.cls-13{fill:#acd29a;}.cls-14{fill:#ffb27d;}.cls-15{fill:#163560;}.cls-16{fill:#aec3ff;}.cls-17{opacity:0.3;}.cls-18{fill:#8c9df4;}.cls-19{fill:#23417c;}.cls-20{fill:#233862;}.cls-21{fill:#2b478b;}.cls-22{fill:#c65447;}.cls-23{fill:#e8945b;}.cls-24{fill:#f8fcff;}.cls-25{fill:#172944;}.cls-26{fill:#a8302d;}.cls-27{fill:#a2c2dd;}.cls-28{fill:#ea6a60;}.cls-29{fill:#6bb7bf;}.cls-30{fill:#ed985f;}.cls-31{fill:#abddda;}.cls-32{fill:#2c3a64;}.cls-33{fill:#6980e2;}.cls-34{fill:#91cecf;}.cls-35{fill:#59a9ad;}.cls-36{fill:#e2915a;}.cls-37{fill:#9db0f4;}.cls-38{fill:#82b378;}.cls-39{fill:#2e3552;}</style></defs><title>Монтажная область 60</title><path class="cls-1" d="M2659,1183.61c-2.27,115-34.67,219.94-85.12,323.32l-465.8.07c-678.62.1-1859.12.26-1859.21.2l-1.42-1.1c-55.29-43-75.48-105.72-63.29-175.6a0,0,0,0,1,0,0c13.17-76.1,64.09-158.73,143.05-228.58,112.9-99.86,203.13-126,143.87-335.51-16.74-59.22-12.76-112.57,3.85-159.84,52.58-149.74,231.79-238.26,279.36-258,158.93-66.15,383-63.14,552-27.69,271.5,57,366.85,209.42,448,292.62,30.12,30.82,58.17,51.71,92.56,54,56.16,3.63,136.24-26.7,233.49-35.65,72.64-6.68,154.74-1.43,243.33,38.89,97.2,44.14,192.66,130,246.84,208.63C2633.28,970.31,2661.14,1073.56,2659,1183.61Z"/><g class="cls-2"><rect class="cls-3" x="1968.84" y="865.08" width="519.86" height="640.31"/><rect class="cls-4" x="2020.69" y="896.39" width="468.01" height="69.75"/><rect class="cls-5" x="1635.32" y="1011.25" width="587.12" height="496.33"/><rect class="cls-6" x="1620.8" y="993.22" width="610.82" height="18.04"/><rect class="cls-6" x="1958.36" y="856.06" width="539.99" height="18.04"/><rect class="cls-7" x="1635.32" y="1056.12" width="379.87" height="92.25"/><rect class="cls-7" x="1280.95" y="1070.05" width="354.37" height="196.55"/><rect class="cls-7" x="1280.95" y="1307.49" width="354.37" height="196.55"/><rect class="cls-8" x="1330.06" y="1266.6" width="305.25" height="40.89"/><path class="cls-6" d="M1746.61,1086.2h7.06v12.7h13v-12.7h7.06v32.09h-7.06v-12.88h-13v12.88h-7.06Z"/><path class="cls-6" d="M1780,1102.24c0-9.12,7.2-16.59,17.1-16.59s17,7.38,17,16.59-7.19,16.6-17.09,16.6S1780,1111.46,1780,1102.24Zm26.72,0c0-5.5-4-10.08-9.71-10.08s-9.63,4.49-9.63,10.08,4,10.09,9.72,10.09S1806.75,1107.83,1806.75,1102.24Z"/><path class="cls-6" d="M1818,1113.61l4.17-5c2.89,2.39,5.91,3.9,9.58,3.9,2.89,0,4.63-1.15,4.63-3.12,0-1.78-1.1-2.7-6.46-4.08-6.47-1.65-10.64-3.43-10.64-9.9,0-5.82,4.68-9.67,11.23-9.67a18.6,18.6,0,0,1,11.92,4.08l-3.67,5.32c-2.84-2-5.64-3.17-8.34-3.17s-4.13,1.24-4.13,2.89c0,2.11,1.38,2.8,6.93,4.22,6.5,1.7,10.17,4,10.17,9.72,0,6.37-4.86,10-11.78,10A20.4,20.4,0,0,1,1818,1113.61Z"/><path class="cls-6" d="M1849.53,1086.2h13.11c7.65,0,12.28,4.54,12.28,11.18,0,7.43-5.77,11.28-13,11.28h-5.37v9.63h-7Zm12.65,16.18c3.53,0,5.59-2.11,5.59-5,0-3.16-2.2-4.86-5.73-4.86h-5.46v9.81Z"/><path class="cls-6" d="M1880.47,1086.2h7.06v32.09h-7.06Z"/><path class="cls-6" d="M1903,1092.71h-9.76v-6.51h26.59v6.51h-9.77v25.58H1903Z"/><path class="cls-6" d="M1932.13,1086h6.51l13.75,32.32H1945l-2.93-7.2h-13.57l-2.93,7.2h-7.2Zm7.43,18.89-4.27-10.41-4.26,10.41Z"/><path class="cls-6" d="M1957.35,1086.2h7.05v25.67h16v6.42h-23.05Z"/><rect class="cls-7" x="2251.94" y="1270.23" width="236.76" height="156.25"/><rect class="cls-7" x="2251.94" y="1040.16" width="236.76" height="156.25"/><rect class="cls-7" x="2025.62" y="900.11" width="463.08" height="61.56"/><polygon class="cls-9" points="1635.32 1017.44 2222.43 1035.15 2222.43 1011.25 1635.32 1011.25 1635.32 1017.44"/><rect class="cls-6" x="1258.78" y="1068.88" width="376.54" height="19.46"/><rect class="cls-3" x="1726.69" y="1286.95" width="412.55" height="215.52"/><rect class="cls-6" x="1740.55" y="1302.02" width="386.74" height="201.17"/><rect class="cls-7" x="1755.2" y="1314.75" width="358.24" height="46.22"/><rect class="cls-7" x="1755.2" y="1373.53" width="104.76" height="128.8"/><rect class="cls-7" x="1869.92" y="1373.53" width="128.79" height="128.8"/><rect class="cls-7" x="2007.57" y="1373.53" width="105.87" height="128.8"/><polygon class="cls-10" points="1912.12 1373.53 1998.71 1373.53 1998.71 1421.19 1983.28 1502.33 1887.62 1502.33 1912.12 1373.53"/><rect class="cls-6" x="1886.8" y="1398.03" width="96.35" height="104.44"/><rect class="cls-3" x="1891.4" y="1402.75" width="87.16" height="99.71"/><rect class="cls-6" x="1933.36" y="1402.75" width="3.25" height="99.71"/><path class="cls-6" d="M1925.59,1452.61a2.06,2.06,0,1,1,2.06,2.06A2.06,2.06,0,0,1,1925.59,1452.61Z"/><path class="cls-6" d="M1940.25,1452.61a2.06,2.06,0,1,1,2.06,2.06A2.06,2.06,0,0,1,1940.25,1452.61Z"/><polygon class="cls-10" points="1788.52 1373.53 1841.56 1373.53 1824.63 1502.33 1771.59 1502.33 1788.52 1373.53"/><polygon class="cls-10" points="1849.28 1314.75 1843.21 1360.97 1790.17 1360.97 1796.24 1314.75 1849.28 1314.75"/><polygon class="cls-10" points="2032.63 1373.53 2085.66 1373.53 2068.73 1502.33 2015.69 1502.33 2032.63 1373.53"/><polygon class="cls-10" points="2093.39 1314.75 2087.31 1360.97 2034.27 1360.97 2040.35 1314.75 2093.39 1314.75"/><polygon class="cls-10" points="2018.96 1314.75 2010.17 1360.97 1914.51 1360.97 1923.3 1314.75 2018.96 1314.75"/><polygon class="cls-10" points="2007.65 1383.02 2007.85 1383.02 2007.65 1384.04 2007.65 1383.02"/><polygon class="cls-11" points="2362.6 1196.41 2284.26 1196.41 2318.53 1040.16 2396.87 1040.16 2362.6 1196.41"/><polygon class="cls-10" points="2432.01 1426.48 2353.67 1426.48 2387.95 1270.23 2466.28 1270.23 2432.01 1426.48"/><polygon class="cls-10" points="2320.6 1270.23 2286.33 1426.48 2251.94 1426.48 2251.94 1270.23 2320.6 1270.23"/><polygon class="cls-10" points="2488.7 1040.16 2488.7 1196.41 2402.58 1196.41 2440.83 1040.16 2488.7 1040.16"/><rect class="cls-4" x="2139.01" y="900.11" width="6.53" height="61.56"/><rect class="cls-4" x="2270.8" y="900.11" width="6.53" height="61.56"/><rect class="cls-4" x="2399.32" y="900.11" width="6.53" height="61.56"/><g class="cls-2"><rect class="cls-3" x="1322.47" y="1140.6" width="39.26" height="61.96"/><path class="cls-6" d="M1363.34,1204.56H1320.1v-66h43.24Zm-39.25-4h35.26v-58h-35.26Z"/><rect class="cls-6" x="1323.59" y="1161.32" width="36.26" height="2.99"/><rect class="cls-6" x="1323.59" y="1181.94" width="36.26" height="2.99"/><rect class="cls-6" x="1310.59" y="1169.94" width="62.26" height="2.99" transform="translate(2513.15 -170.29) rotate(90)"/><rect class="cls-3" x="1435.82" y="1140.6" width="39.26" height="61.96"/><path class="cls-6" d="M1476.7,1204.56h-43.25v-66h43.25Zm-39.26-4h35.26v-58h-35.26Z"/><rect class="cls-6" x="1436.94" y="1161.32" width="36.26" height="2.99"/><rect class="cls-6" x="1436.94" y="1181.94" width="36.26" height="2.99"/><rect class="cls-6" x="1423.94" y="1169.94" width="62.26" height="2.99" transform="translate(2626.5 -283.64) rotate(90)"/><rect class="cls-3" x="1549.17" y="1140.6" width="39.26" height="61.96"/><path class="cls-6" d="M1590.05,1204.56H1546.8v-66h43.25Zm-39.26-4h35.26v-58h-35.26Z"/><rect class="cls-6" x="1550.29" y="1161.32" width="36.26" height="2.99"/><rect class="cls-6" x="1550.29" y="1181.94" width="36.26" height="2.99"/><rect class="cls-6" x="1537.3" y="1169.94" width="62.26" height="3" transform="translate(2739.86 -396.99) rotate(90)"/></g><g class="cls-2"><rect class="cls-3" x="1322.47" y="1353.06" width="39.26" height="61.96"/><path class="cls-6" d="M1363.34,1417H1320.1v-66h43.24Zm-39.25-4h35.26v-58h-35.26Z"/><rect class="cls-6" x="1323.59" y="1373.79" width="36.26" height="2.99"/><rect class="cls-6" x="1323.59" y="1394.4" width="36.26" height="3"/><rect class="cls-6" x="1310.59" y="1382.4" width="62.25" height="2.99" transform="translate(2725.62 42.18) rotate(90)"/><rect class="cls-3" x="1435.82" y="1353.06" width="39.26" height="61.96"/><path class="cls-6" d="M1476.7,1417h-43.25v-66h43.25Zm-39.26-4h35.26v-58h-35.26Z"/><rect class="cls-6" x="1436.94" y="1373.79" width="36.26" height="2.99"/><rect class="cls-6" x="1436.94" y="1394.4" width="36.26" height="3"/><rect class="cls-6" x="1423.94" y="1382.4" width="62.25" height="2.99" transform="translate(2838.97 -71.17) rotate(90)"/><rect class="cls-3" x="1549.17" y="1353.06" width="39.26" height="61.96"/><path class="cls-6" d="M1590.05,1417H1546.8v-66h43.25Zm-39.26-4h35.26v-58h-35.26Z"/><rect class="cls-6" x="1550.29" y="1373.79" width="36.26" height="2.99"/><rect class="cls-6" x="1550.29" y="1394.4" width="36.26" height="3"/><rect class="cls-6" x="1537.3" y="1382.4" width="62.25" height="3" transform="translate(2952.32 -184.53) rotate(90)"/></g><rect class="cls-12" x="1626.19" y="1221.76" width="613.54" height="21.59"/><rect class="cls-8" x="1709.17" y="1498" width="458.38" height="9.58"/><path class="cls-13" d="M1697.64,1507.58s-2.55-22.53,20.3-28.24,31.81-26.12,58.34-9,18.13,37.22,18.13,37.22Z"/></g><path class="cls-14" d="M1134.83,1146.05s7.3,25.65,5.57,32.06-9.42,18.39-12.84,18,0-41,0-41Z"/><path class="cls-15" d="M1010.87,947.34c-2.66-5.13,58-23.6,59,27,0,0,113.68-2.8,59.4-66.16-18.79-21.94-16.86-40.08-16.3-57s-11.7-66-53.78-61c0,0-11-4.48-24.77,2.65C1003.13,809.11,933.07,966,1010.87,947.34Z"/><path class="cls-16" d="M1140.38,1153.75s-.64,3.07-7,4.63a44.1,44.1,0,0,1-13,.71c-1.25-.09-2.6-.2-4-.37-2.7-.29-5.7-.74-9-1.37l2.35-139.19-9.8-108.62s20.92,9.89,31.18,42c7.88,24.63,9.2,130.7,9.39,178.61C1140.43,1144.59,1140.38,1153.75,1140.38,1153.75Z"/><g class="cls-17"><path class="cls-18" d="M1140.38,1153.75s-.64,3.07-7,4.63a44.1,44.1,0,0,1-13,.71l1.89-103.69s1.55,56.62,18.16,74.71C1140.43,1144.59,1140.38,1153.75,1140.38,1153.75Z"/></g><path class="cls-19" d="M934,1448.11s-12.74,11.62-10.25,19.88,14,13.77,15.53,23.86,7.77,15.61,13.36,15.61h26.67s4.11-7.11-5.83-9.25-13.69-14-13.07-25-.93-25.7-.93-25.7l-21.13-4.89Z"/><path class="cls-19" d="M1041.77,1453s-4.58,49.25,1,52l71.58-.14s0-8.26-11.5-10.1-31.69-8.56-35.11-23.55S1041.77,1453,1041.77,1453Z"/><path class="cls-20" d="M1100.22,1048.86s20.63,64.23,22,86.1-39.45,310.66-41.09,320.73c-1.55,9.5-13.34,15.56-13.34,15.56a17.89,17.89,0,0,1-13.17,1c-10.74-3-14.13-6.67-14.13-6.67s-16.06-206-6.12-279.53a1166.78,1166.78,0,0,0,10.05-137.2Z"/><path class="cls-21" d="M1012.79,1047s-31.48,42.23-34.41,70.78-4.61,128.83-10.86,156.67-29.22,81.39-29.22,168.2c0,0,2.39,5,9.76,7.63a84.55,84.55,0,0,0,8.58,2.37,13.49,13.49,0,0,0,15.09-7.17c15.53-31.26,65-132.1,67.54-153,1.79-14.81,12.33-103.73,46.4-161.26,8.18-13.81,7.69-74,7.69-74Z"/><path class="cls-21" d="M986.71,964.24a286.83,286.83,0,0,0,0,33.08c.71,12,12.81,28,14.53,31.95,4.31,9.94,9.16,11.55,9.16,11.55L1048,1050l3.15,20.12s31.54,13.47,53.41-7.38c19-18.14,17.3-74.92,9.68-104.74S1095,907.5,1095,907.5s-28.25-11.15-78.27-2.82Z"/><path class="cls-16" d="M1030.21,901.59s-15.79,2.64-25.41,5.83L997.71,994H1063l-24.53-64.34Z"/><path class="cls-16" d="M1063,994l-7.17,266.9s-35.77,17-104.09,0l17.62-284.13Z"/><path class="cls-22" d="M952.69,1056.07l48.3,42.06a8.39,8.39,0,0,0,11.83-.81l61.64-70.79a8.39,8.39,0,0,0-.82-11.82l-48.31-42.07a8.38,8.38,0,0,0-11.82.82l-61.64,70.79A8.37,8.37,0,0,0,952.69,1056.07Z"/><path class="cls-14" d="M1024.15,1050.76c.69.18,25.66,3.12,25.67,8.28,0,6-7.32,14-14.22,13.58-2.8-.15-15.68-12-15.68-12Z"/><path class="cls-14" d="M1037,901.94c2.84-6.89,4.5-17.38,4.45-30.37l1.89.37,31.72,6.28s-.72,10-.74,19.39v.23c0,8.17,5.51,16.37-7.59,19.61C1062.66,918.45,1031,916.42,1037,901.94Z"/><path class="cls-23" d="M1075,878.22s-.72,10-.74,19.39c-17.76-.5-27.14-16.7-31-25.67Z"/><path class="cls-14" d="M1081,887.13s-42,.69-42-25.47-5.47-43.7,21.35-45.25,32,8.43,34.17,17.16S1091.89,886.27,1081,887.13Z"/><path class="cls-15" d="M1079.41,815.77s-11.5,30.7-29.14,35.24-25.31-.2-25.31-.2a50,50,0,0,0,16.35-29.52S1070.74,801.16,1079.41,815.77Z"/><path class="cls-15" d="M1076.56,818.26s8.53,3.19,12,9.41a42.3,42.3,0,0,1,5.68,24s8.66-20.86-1.07-32.66C1082.88,806.51,1076.56,818.26,1076.56,818.26Z"/><path class="cls-14" d="M1024.15,1050.76s6-1.92,10-1.36,7-.08,7,1-5.17,1.64-6.26,2.18S1024.15,1050.76,1024.15,1050.76Z"/><path class="cls-16" d="M1016.69,904.68s-29.82,2.09-41.25,29.87-33.11,74.43-33.11,82.28,12.11,32,77.16,45.94c0,0,6.73-7.08,6.32-12.67,0,0-40.6-34.88-40.49-39,.2-7.71,6.65-17.89,42.31-53.55C1037.32,947.89,1016.69,904.68,1016.69,904.68Z"/><path class="cls-18" d="M1048.25,948.29s-11.2-30.63-9-53.68c0,0-8.73,2.2-13.25,8.7,0,0-2,35.26,4.37,51.61,0,0,9.55.43,11.63-.69,0,0-4.16,7-3.52,7.85S1063,994,1063,994Z"/><path class="cls-16" d="M1097.63,980.36l7,274.5s16.68.64,26.3-9.62l-8.77-297.42S1113,912,1095,907.5L1076.89,903Z"/><path class="cls-18" d="M1074.3,897.61a95.33,95.33,0,0,0,1.1,11.89c3,20.66,25,62.11,22.48,80.6,0,0,2.32-32.18,2.32-39l-6.42-4.49,8.34-3.42S1086.56,904.32,1074.3,897.61Z"/><rect class="cls-18" x="978.77" y="1152.89" width="62.33" height="6.36" transform="translate(86.31 -70.06) rotate(4.15)"/><g class="cls-17"><path class="cls-18" d="M978.62,1157s-4.53,38.56,0,42.08,51.85,8,56.25,4.49,5.92-42.06,5.92-42.06Z"/></g><path class="cls-24" d="M643.84,565s25.38-42.68,86.09-37.94c0,0,88.14-71.13,182.12-9.48,0,0,99.91-15.28,173.9,13.22,49.33,19,65.62,38.94,65.62,38.94Z"/><path class="cls-24" d="M1161.44,522.63S1180,475.84,1224.3,481c0,0,64.34-78,133-10.4,0,0,72.94-16.75,127,14.5,36,20.84,47.9,42.69,47.9,42.69Z"/><path class="cls-24" d="M1740.38,813.85s12.74-31.48,43.2-28c0,0,44.23-52.47,91.39-7,0,0,50.13-11.26,87.26,9.76,24.76,14,32.93,28.72,32.93,28.72Z"/><path class="cls-24" d="M1021.47,682.07s14.74-26,50-23.13c0,0,51.19-43.37,105.78-5.78,0,0,58-9.32,101,8.06,28.65,11.59,38.12,23.74,38.12,23.74Z"/><path class="cls-20" d="M2404.56,1355.06v17.62a9.86,9.86,0,0,1-9.87,9.87h-3.16a9.9,9.9,0,0,1-9.87-9.87v-17.62a9.75,9.75,0,0,1,1.43-5.07v0a9.93,9.93,0,0,1,8.44-4.77h3.16A9.9,9.9,0,0,1,2404.56,1355.06Z"/><g class="cls-17"><path class="cls-20" d="M2403.53,1377.08a9.9,9.9,0,0,1-8.84,5.47h-3.16a9.9,9.9,0,0,1-9.87-9.87v-17.62a9.75,9.75,0,0,1,1.43-5.07C2383.28,1351.08,2387.47,1375.25,2403.53,1377.08Z"/></g><polygon class="cls-25" points="2248.07 1484.02 2296.86 1484.02 2296.86 1434.77 2245.96 1434.77 2248.07 1484.02"/><path class="cls-6" d="M2401.93,1379.92l-239.72,5.91V1259.42h157.42a40,40,0,0,1,35.59,21.75l10.3,20.11Z"/><path class="cls-20" d="M2265.75,1476c0,13.38,6.89,28.12,6.89,28.12h11.68c10.25,0,18.56-12.59,18.56-28.12s-20-28.11-30.24-28.11S2265.75,1460.48,2265.75,1476Z"/><ellipse class="cls-21" cx="2272.64" cy="1476" rx="18.57" ry="28.11"/><ellipse class="cls-7" cx="2272.88" cy="1476" rx="13.99" ry="21.18"/><path class="cls-20" d="M2400,1476c0,13.38,6.9,28.12,6.9,28.12h11.67c10.25,0,18.57-12.59,18.57-28.12s-20-28.11-30.24-28.11S2400,1460.48,2400,1476Z"/><path class="cls-21" d="M2388.29,1476c0,15.53,8.32,28.12,18.58,28.12s18.56-12.59,18.56-28.12-8.31-28.11-18.56-28.11S2388.29,1460.48,2388.29,1476Z"/><path class="cls-20" d="M2091.74,1476c0,13.38,6.89,28.12,6.89,28.12h11.68c10.25,0,18.57-12.59,18.57-28.12s-20-28.11-30.25-28.11S2091.74,1460.48,2091.74,1476Z"/><path class="cls-21" d="M2080.07,1476c0,15.53,8.31,28.12,18.56,28.12s18.57-12.59,18.57-28.12-8.31-28.11-18.57-28.11S2080.07,1460.48,2080.07,1476Z"/><path class="cls-6" d="M2455.6,1462.74c0,11.75-9.08,16.58-20.8,16.58l-131.92,1.14c.4-2.31-5.4-1.14-5.4-3.61,0-18.17-10.91-32.93-24.34-32.93s-26.23,9.89-26.23,28.06c0,2.47-2.93,5.85-2.53,8.16l-70.68-6.21s-7.92-25.79-7.52-43.78c.32-15.65.32-46.33-.61-53.81,0-1.12,77.48-1.25,97-1.33l4.4,0,.27.18.29.21c3.61,2.53,23.83,16.7,36.38,25,11.06,7.3,92.74,10.27,124.77,11.17,8,.21,12.87.29,12.87.29a58.34,58.34,0,0,1,8.25,11.57c3,5.49,5.62,12.55,5.68,20.27,0,4.81.05,10.59.05,16.27C2455.6,1460.88,2455.6,1461.81,2455.6,1462.74Z"/><path class="cls-3" d="M2382.6,1375H2274.87a6.37,6.37,0,0,1-5.79-3.72l-26.66-59.33a2.94,2.94,0,0,1,2.68-4.14h113.64a6.34,6.34,0,0,1,5.79,3.79l19.1,43.65,4.78,10.91A6.33,6.33,0,0,1,2382.6,1375Z"/><path class="cls-9" d="M2332.42,1460c0,1.86-.11,3.61-.21,5.17-.77,10.33-11.14,18.89-11.14,18.89h-24.21A42.68,42.68,0,0,0,2294,1460c-4.28-9.6-12-16-20.88-16s-16.65,6.43-20.92,16c-2.17,4.93-7.28,10.34-7.28,16.51,0,2.47-2.11,2.43-1.71,4.74l-81,2.81V1259.43h70l.33,41.85a66,66,0,0,0,3.57,11.88c2.13,5,5,11.67,8.07,18.93,6.37,14.87,13.81,32.23,18.46,42.93,2.34,5.41,4,9.1,4.4,9.89,1.31,2.49,20.73,13,37.14,22.35,4.1,2.33,8,4.58,11.4,6.62a82,82,0,0,1,10.4,7C2330.43,1424.9,2332.66,1445.87,2332.42,1460Z"/><polygon class="cls-6" points="2441.59 1411.84 2313.9 1411.84 2267.28 1375.17 2267.01 1374.99 2395.82 1374.99 2432.49 1404.49 2441.59 1411.84"/><path class="cls-26" d="M2330.43,1433.39l-11.54-1.14a9,9,0,0,1-8-7.41l-2.66-14.59a2,2,0,0,1,0-.69c8.22,4.72,15.15,8.94,17.78,11.3C2327.86,1422.59,2329.37,1427.37,2330.43,1433.39Z"/><path class="cls-6" d="M2365.53,1301.28h-133a77.32,77.32,0,0,0-3.85-18.23c-3-8.59-8.11-18.16-17.1-23.63h108.7c17.72,0,33.42,9.47,39.66,23.63.29.58.54,1.17.77,1.76A111.87,111.87,0,0,1,2365.53,1301.28Z"/><path class="cls-27" d="M2330.46,1433.39l-11.57-1.14a9,9,0,0,1-8-7.41l-2.66-14.59a2.19,2.19,0,0,1,0-.72c8.22,4.75,15.15,9,17.78,11.33C2327.86,1422.59,2329.37,1427.37,2330.46,1433.39Z"/><path class="cls-20" d="M2455.6,1462.74c0,11.75-7,22.39-22.42,21.78l-137.85,0c.4-2.31,1.47-5.64,1.47-8.11,0-6.18-.6-11.55-2.77-16.49h161.54C2455.6,1460.88,2455.6,1461.81,2455.6,1462.74Z"/><path class="cls-20" d="M2248.78,1476.85a42,42,0,0,0,.59,7.17H2162.2V1460h90A42.17,42.17,0,0,0,2248.78,1476.85Z"/><path class="cls-20" d="M2365.7,1412.88h52.21c1.67,0,3,2.25,2.69,4.74l-1.85,18.15c-.27,2.67-1.79,4.64-3.58,4.64h-43c-2.75,0-5.19-2.73-6-6.72l-3.1-15.43C2362.52,1415.58,2363.85,1412.88,2365.7,1412.88Z"/><path class="cls-7" d="M2383.63,1355.24c-61.58-3.15-103.24-36.11-115.82-47.44h90.93a6.34,6.34,0,0,1,5.79,3.79Z"/><polygon class="cls-6" points="2186.84 1259.42 2186.84 1472.95 1953.88 1476.01 1953.88 1259.42 2186.84 1259.42"/><path class="cls-9" d="M2365.53,1301.28h-133a77.32,77.32,0,0,0-3.85-18.23h131.26c.29.58.54,1.17.77,1.76A111.87,111.87,0,0,1,2365.53,1301.28Z"/><path class="cls-20" d="M2449.84,1423.41a4.29,4.29,0,0,1-2.73,2.2l-17.91,3.32c-1.52.29-2.69-2.33-2.29-5l1.75-12.05.06-.29.34-2.47c.32-2.12,1.25-3.74,2.39-4.19l1-.4,9.1,7.35A58.34,58.34,0,0,1,2449.84,1423.41Z"/><rect class="cls-28" x="1953.88" y="1407.26" width="372.06" height="18.93"/><rect class="cls-28" x="1953.88" y="1298.34" width="232.96" height="18.93"/><path class="cls-28" d="M2037.2,1361.84a33.16,33.16,0,1,1,33.16,33.16A33.16,33.16,0,0,1,2037.2,1361.84Z"/><path class="cls-6" d="M2070.36,1391.2a29.36,29.36,0,1,1,20.76-8.6A29.18,29.18,0,0,1,2070.36,1391.2Zm0-56a26.65,26.65,0,1,0,18.85,7.81A26.5,26.5,0,0,0,2070.36,1335.18Z"/><polygon class="cls-6" points="2089.32 1357.05 2075.15 1357.05 2075.15 1342.88 2065.57 1342.88 2065.57 1357.05 2051.4 1357.05 2051.4 1366.63 2065.57 1366.63 2065.57 1380.8 2075.15 1380.8 2075.15 1366.63 2089.32 1366.63 2089.32 1357.05"/><path class="cls-20" d="M2352.35,1435.56l-21.89-2.17h0l-11.54-1.14a9,9,0,0,1-8-7.41l-2.66-14.59a2,2,0,0,1,0-.69v0a4.86,4.86,0,0,1,5.84-4.93l34.09,6.92a5.9,5.9,0,0,1,4.49,4.2l4,14.8A4,4,0,0,1,2352.35,1435.56Z"/><path class="cls-3" d="M2233,1318.47,2255.9,1375h-39.37s-8.08-1.36-9.11-17.86c-1.11-17.63-1.11-48-1.11-48l17.29-.08C2230.18,1310,2231.21,1313.63,2233,1318.47Z"/><path class="cls-20" d="M2244.22,1346s2,22.85-9.28,29.1H2256Z"/><path class="cls-20" d="M2247.32,1361.26s-4.76-3.38-5.17-6.19v16h6.23Z"/><path class="cls-20" d="M2242.15,1355.06v17.62a9.86,9.86,0,0,1-9.87,9.87h-3.16a9.9,9.9,0,0,1-9.87-9.87v-17.62a9.75,9.75,0,0,1,1.43-5.07v0a9.91,9.91,0,0,1,8.44-4.77h3.16A9.9,9.9,0,0,1,2242.15,1355.06Z"/><path class="cls-20" d="M2187.06,1476.85a23.64,23.64,0,0,0,1.08,7.17h-160.4V1460h165.67A26.77,26.77,0,0,0,2187.06,1476.85Z"/><path class="cls-20" d="M2113.2,1476.85a23.63,23.63,0,0,0,1.07,7.17H1953.88V1460h165.67A26.71,26.71,0,0,0,2113.2,1476.85Z"/><path class="cls-25" d="M2030,1484h-57.3c-1.21-5.17-4.86-42,27.25-42C2029.11,1442,2031.25,1475.63,2030,1484Z"/><path class="cls-20" d="M1990.6,1476c0,13.38,6.9,28.12,6.9,28.12h11.67c10.26,0,18.57-12.59,18.57-28.12s-20-28.11-30.24-28.11S1990.6,1460.48,1990.6,1476Z"/><path class="cls-21" d="M1978.93,1476c0,15.53,8.31,28.12,18.57,28.12s18.57-12.59,18.57-28.12-8.32-28.11-18.57-28.11S1978.93,1460.48,1978.93,1476Z"/><ellipse class="cls-7" cx="1997.73" cy="1476" rx="13.99" ry="21.18"/><path class="cls-20" d="M1277.44,822.86s-11.36-24.14-9.08-36.87,1.77-29.63,18.74-36.16,18.48-.24,36.93-2.2c17.88-1.9,24.27,20.74,26,30.36,3.57,20.33-2.55,33.06-7.93,39.91-4.66,5.93-6.78,8.9-6.78,8.9Z"/><path class="cls-20" d="M1230.26,1505s0-11.9,1.7-15.86,7.92-20.08,7.92-20.08h24.32s4.53,14.7,4.81,19.51,0,16.43,0,16.43Z"/><path class="cls-20" d="M1384.7,1505s0-11.9-1.7-15.86-7.92-20.08-7.92-20.08h-24.32s-4.53,14.7-4.81,19.51,0,16.43,0,16.43Z"/><path class="cls-29" d="M1233.31,1092.66s4.26,130-2.11,204.1,0,177.34,0,177.34,20.35,11.22,42.41,0c0,0,24.19-143.25,24-177.34-.16-36.3,26.33-198.43,26.33-198.43Z"/><path class="cls-29" d="M1383.82,1474.09s-20.35,11.23-42.41,0c0,0-24.19-143.24-24-177.33.07-15.33-4.61-53.12-10-91.64-7.44-52.7-16.28-106.79-16.28-106.79l94.24-5.89s-7.78,130.18-1.41,204.32S1383.82,1474.09,1383.82,1474.09Z"/><path class="cls-16" d="M1251.62,881.36s-35.06,4.16-42.76,35.66-38,111.54-7.7,129.62c0,0,32.07-43,44.26-77.6S1251.62,881.36,1251.62,881.36Z"/><path class="cls-16" d="M1370.8,898.17s35.28-4.44,43,27.06,32.31,101.83,2,119.92c0,0-34.22-41.48-46.41-76.11S1370.8,898.17,1370.8,898.17Z"/><path class="cls-14" d="M1287.25,836.69s-.86,26.52-4.25,38.4l-26.86,18.74L1357.25,909l-24.11-33.32s-7.28-35.55-3.47-48.7S1287.25,836.69,1287.25,836.69Z"/><path class="cls-30" d="M1287.1,840.36s8,19.24,23.06,18.82,18.49-17.46,18.49-17.46Z"/><path class="cls-14" d="M1308.43,851.74c-10.91-.19-31-14.72-31-32.72V790.94c0-6.57,4.58-11.94,10.18-11.94h41.63c5.6,0,10.18,5.37,10.18,11.94v26.49C1339.43,836.3,1321,852,1308.43,851.74Z"/><path class="cls-31" d="M1386.68,1150.54c-78.08,13.47-161.79,2.57-161.79,2.57l7.78-157.79c-.21-2.28-.36-4.63-.42-7-.09-3.15,0-6.88.16-11,1.57-33.11,11.57-92.69,19.2-95.9,0,0,11.34-4.2,31.39-6.27,0,.4,11.64,17.41,25.44,19.31,8.58-3.39,15.31-6.29,24.7-18.76,5.5.64,11.29,1.44,17.43,2.61.45.07.92.16,1.38.25a187.87,187.87,0,0,1,21.57,5.55s9.92,3.84,7.72,73Z"/><path class="cls-6" d="M1299.74,833.65a12,12,0,0,0,9.34,4.44,11.11,11.11,0,0,0,8.72-4.44S1307.79,832,1299.74,833.65Z"/><path class="cls-16" d="M1224.89,1029.57l-4.36,234.94s35.2,9.11,65.46,11l7.84-287.21-10.78-97.21-9.79-16s-32.37,2.53-51.75,18.32c-13.22,10.77-19.33,47.51-19.33,47.51l30.47,32Z"/><path class="cls-16" d="M1391.5,1029.57l4.36,234.94s-35.2,9.11-65.46,11L1324,996.89l9.31-105.77,9.79-16s32.28,2.65,51.75,18.32c20.89,16.81,25.08,58.2,25.08,58.2l-36.22,21.31Z"/><path class="cls-14" d="M1201.16,1046.64c35.43,9.54,55.37-15.11,138.27-49.19l-2.51-13.23s-95.32,1.11-112,10.15C1203.18,1006.13,1198.25,1045.86,1201.16,1046.64Z"/><path class="cls-14" d="M1270.31,975.18s-35.8-2-36.18,16.23l33.09-1.51Z"/><path class="cls-30" d="M1365.06,984.49s26.79-6.79,31.28,11.15-38.52,0-38.52,0Z"/><path class="cls-30" d="M1297.9,1015.87s-10.19-12.26-34.84-27.79l41.84,7.9,12.78,10.47-5.82,3Z"/><polygon class="cls-30" points="1340.22 985.84 1375.9 983.23 1373.41 993.42 1340.22 985.84"/><path class="cls-30" d="M1234.13,991.41s24.48-4.19,24-4.51-8.9-2.89-10.84-1.93S1234.13,991.41,1234.13,991.41Z"/><path class="cls-18" d="M1285.44,861.35s-14.82,8.2-17.42,15.89c0,0-7.18,31.26,2.29,52.32l15.13-3.67-7.77,9.55s4,43.43,16.16,52.89C1293.83,988.33,1284.35,873,1285.44,861.35Z"/><path class="cls-18" d="M1330.67,861.35s14.82,8.2,17.41,15.89c0,0,9.47,29.06,0,50.11l-17.41-1.46,12.46,10.28s-6.94,51.27-19.1,60.72C1324,996.89,1331.76,873,1330.67,861.35Z"/><path class="cls-14" d="M1415.8,1045.15s-73.54-8-159.66-62.32l14.17-7.65s113,12.26,127.11,22.89C1419.63,1014.76,1432.46,1041.26,1415.8,1045.15Z"/><rect class="cls-1" x="1246.16" y="939.11" width="24.15" height="10.61"/><path class="cls-20" d="M1294.48,779s11.1,10.07,25.3,8.08,13.87-7.93,15.86-5.42,2.2,22.91,5,24.25l1.47-26.91-28.16-16.19-40.4,4.65,3.93,39.43s-.75-14.45,5.37-18.61A117.28,117.28,0,0,0,1294.48,779Z"/><path class="cls-20" d="M402.31,1504.17s0-11.91,1.69-15.87,7.92-20.08,7.92-20.08h24.33s4.52,14.7,4.8,19.51,0,16.44,0,16.44Z"/><path class="cls-20" d="M556.74,1504.17s0-11.91-1.7-15.87-7.91-20.08-7.91-20.08H522.8s-4.52,14.7-4.81,19.51,0,16.44,0,16.44Z"/><path class="cls-21" d="M405.36,1091.79s4.25,130-2.11,204.09,0,177.34,0,177.34,20.36,11.22,42.42,0c0,0,24.19-143.25,24-177.34-.17-36.3,26.33-198.43,26.33-198.43Z"/><path class="cls-21" d="M555.86,1473.21s-20.34,11.23-42.4,0c0,0-24.2-143.24-24-177.33.07-15.33-4.62-53.12-10.06-91.64-7.44-52.7-16.28-106.79-16.28-106.79l94.24-5.89s-7.77,130.18-1.41,204.32S555.86,1473.21,555.86,1473.21Z"/><path class="cls-20" d="M489.42,1295.88c.07-15.33-4.62-53.12-10.06-91.64,5.64-23,19.39-45.15,19.39-45.15C516.15,1207.88,489.42,1295.88,489.42,1295.88Z"/><path class="cls-14" d="M423.66,880.48s-35.06,4.16-42.75,35.66-38,111.54-7.7,129.63c0,0,32.07-43,44.25-77.61S423.66,880.48,423.66,880.48Z"/><path class="cls-14" d="M542.85,897.29s35.27-4.44,43,27.06,32.3,101.83,2,119.92c0,0-34.23-41.48-46.41-76.11S542.85,897.29,542.85,897.29Z"/><path class="cls-14" d="M459.3,835.82s-.86,26.51-4.25,38.39L428.19,893,529.3,908.08l-24.12-33.32s-7.28-35.55-3.46-48.7S459.3,835.82,459.3,835.82Z"/><path class="cls-30" d="M459.15,839.48s8,19.24,23.06,18.82,18.48-17.45,18.48-17.45Z"/><path class="cls-32" d="M450.16,823.89s-4.86-24.28-8.26-31.63-6.22-40.16,31.4-41.86c0,0,14.42,1.7,22.34-3.11,0,0,0,4.81-2,6.5A25,25,0,0,1,516.85,762c10.18,11.31-6.78,50.91-5.94,60.24Z"/><path class="cls-14" d="M480.48,850.86c-10.91-.19-31-14.72-31-32.71V790.07c0-6.57,4.58-12,10.18-12H501.3c5.6,0,10.18,5.38,10.18,12v26.49C511.48,835.42,493,851.08,480.48,850.86Z"/><path class="cls-32" d="M449.48,805.06s.06-16.87,13.42-19.47,43.27,8.23,47.52-4.08-57.81-12.09-60.94-4.24S449.48,805.06,449.48,805.06Z"/><path class="cls-31" d="M563.05,956.64l-4.32,193c-78.08,13.46-161.79,2.56-161.79,2.56l7.77-157.79c-.2-2.28-.36-4.63-.42-7-.09-3.16,0-6.89.17-11,1.56-33.11,11.57-92.69,19.2-95.9,0,0,11.34-4.2,31.39-6.27,0,.4,11.63,17.41,25.43,19.31,8.58-3.39,15.32-6.29,24.71-18.76,5.5.65,11.29,1.44,17.43,2.61l1.37.26a187.33,187.33,0,0,1,21.58,5.54s9.91,3.84,7.72,73Z"/><path class="cls-6" d="M471.79,832.78a12,12,0,0,0,9.33,4.43,11.09,11.09,0,0,0,8.73-4.43S479.83,831.13,471.79,832.78Z"/><path class="cls-14" d="M373.21,1045.77c35.43,9.53,55.36-15.12,138.27-49.2L509,983.34s-95.31,1.11-112,10.16C375.22,1005.25,370.3,1045,373.21,1045.77Z"/><path class="cls-31" d="M440.07,876.34v0l-8.36,24.72-.38,1.12-.12.34-.6,1.81L420.26,935l-1,3-11.39,33.74-3.14.27c-29.64,2.07-44.32-6.76-44.32-6.76s6.1-39.45,20.85-61.9c9.64-14.68,31.85-21.72,46-24.84l1.33-.28C435.41,876.83,440.07,876.34,440.07,876.34Z"/><path class="cls-31" d="M535.24,880.48s26.21,3.85,43.52,24.44,21.81,56.51,21.81,56.51-24.05,10.26-52.27,7.69S535.24,880.48,535.24,880.48Z"/><rect class="cls-1" x="504.33" y="935.16" width="36.16" height="13.76"/><path class="cls-21" d="M421.53,964.74l1.71-.78c-.11-.23-10.37-23.05-3.46-47.74a18.87,18.87,0,0,1,15.39-13.59c6.78-.9,12.93,2.4,16.87,9,9.35,15.75-7.67,53.88-7.84,54.26l1.71.78a162.77,162.77,0,0,0,7.59-21.58c4.26-15.83,4.31-27.41.15-34.42-4.34-7.31-11.17-10.93-18.73-9.93A20.78,20.78,0,0,0,418,915.71C410.87,941.08,421.42,964.51,421.53,964.74Z"/><path class="cls-21" d="M447.65,967a2.7,2.7,0,1,0-3.32,1.87A2.71,2.71,0,0,0,447.65,967Z"/><path class="cls-21" d="M425.19,965.14a2.7,2.7,0,1,0-3.33,1.87A2.7,2.7,0,0,0,425.19,965.14Z"/><path class="cls-21" d="M438.57,902.38a.39.39,0,0,1-.15,0,.63.63,0,0,1-.48-.76c0-.18,4.17-18.09,13.36-28.46a.64.64,0,0,1,.9-.06.65.65,0,0,1,.06.91c-9,10.12-13,27.71-13.07,27.89A.64.64,0,0,1,438.57,902.38Z"/><path class="cls-14" d="M442.35,974.3s-35.79-2-36.18,16.23l33.1-1.5Z"/><path class="cls-30" d="M537.1,983.62s26.79-6.8,31.28,11.14-38.51,0-38.51,0Z"/><path class="cls-21" d="M524.91,904.67a.66.66,0,0,1-.61-.42,106,106,0,0,0-17-29.63.64.64,0,0,1,1-.84,107.52,107.52,0,0,1,17.29,30,.64.64,0,0,1-.38.82A.93.93,0,0,1,524.91,904.67Z"/><path class="cls-21" d="M531.17,905.41a6.27,6.27,0,1,0-6.26,6.27A6.26,6.26,0,0,0,531.17,905.41Z"/><path class="cls-33" d="M527.76,905.41a2.86,2.86,0,1,0-2.85,2.85A2.86,2.86,0,0,0,527.76,905.41Z"/><path class="cls-30" d="M470,1015s-10.2-12.26-34.85-27.79L477,995.1l12.77,10.47-5.82,3Z"/><polygon class="cls-30" points="512.26 984.96 547.94 982.35 545.45 992.54 512.26 984.96"/><path class="cls-14" d="M587.85,1044.27s-73.54-8-159.66-62.32l14.16-7.65s113,12.26,127.11,22.9C591.67,1013.88,604.5,1040.38,587.85,1044.27Z"/><path class="cls-30" d="M406.17,990.53s24.48-4.19,24.06-4.51-8.9-2.89-10.84-1.92S406.17,990.53,406.17,990.53Z"/><path class="cls-14" d="M1505.53,978c-1.24,2.33-9.47,90-3,101.5s37-22,37.75-78.54C1540.92,953.35,1505.53,978,1505.53,978Z"/><rect class="cls-20" x="1455.59" y="1046" width="126.29" height="89.05" transform="translate(2646.47 2581.84) rotate(-162.78)"/><path class="cls-21" d="M1502.67,1483.3l12.43,4.63s54-74.85,60.61-140.71c1.19-11.76.79-23.15-1.78-33.67,0,0,.53-3,1.46-8.34.42-2.49.95-5.48,1.55-8.91,1.75-10,4.17-23.81,6.93-39.47,6.35-36,14.57-82.12,21-116l-3.35-1.08-36.23-11.68-7.49-23.78-27-7.1s-6,11.78-11.41,67.47c-1,7.3-1.9,15.36-2.58,24.09a476.73,476.73,0,0,0,2.57,97.54c1.24,9.68,2.8,19.67,4.74,29.94,1.42,7.52,1.63,17.78,1,29.56C1522.43,1399.64,1502.67,1483.3,1502.67,1483.3Z"/><path class="cls-20" d="M1516.81,1188.76l58.58,116.45c.42-2.49.95-5.48,1.55-8.91,1.75-10,4.17-23.81,6.93-39.47,6.35-36,14.57-82.12,21-116l-3.35-1.08-36.23-11.68-7.49-23.78-27-7.1s-6,11.78-11.41,67.47C1518.39,1172,1517.49,1180,1516.81,1188.76Z"/><path class="cls-21" d="M1542.58,1112.14l1.36-11.63c22.71,6,83.41-16.86,83.41-16.86s22,19.35,19.12,65.72c-1.41,22.63-4,118.81-6.68,147.27-1,10.32-1.82,17.66-2.17,20.59a0,0,0,0,0,0,0,4.14,4.14,0,0,0,.66,2.52,134.6,134.6,0,0,1,9.94,20.88c26.4,70.38-4.07,157-4.07,157l-7.91-3.19s-17.34-96.45-31.44-139.06c-2.39-7.23-4.68-12.91-6.78-16.3-6.13-9.89-11.82-26.05-17-45.27-9.75-36.33-17.6-83.6-22.83-120.08C1557.48,1173.84,1542.58,1112.14,1542.58,1112.14Z"/><path class="cls-20" d="M1598.16,1504.17h62.58s1.5-9.54-1.77-16.78c-3.13-6.94-8-10.1-6.86-18.5-4,4.1-10.46,8.68-19.51,7.46-1.11,1.8-7.15,11.42-10.86,14.08C1617.65,1493.37,1599.42,1492.32,1598.16,1504.17Z"/><path class="cls-20" d="M1463.78,1504.17h62.59s2.34-10-1.77-16.78c-3.64-6-2.25-9.43.45-14.4a24.38,24.38,0,0,1-10.54,2,22,22,0,0,1-9.31-3.27c-2.69,3.07-14.23,16.14-17.83,18.73C1483.28,1493.37,1465,1492.32,1463.78,1504.17Z"/><path class="cls-32" d="M1610.82,790.87c.49-1.69,6.43-19.64,34.53-13.55,0,0-14.11-1.83-18,3.59,0,0,11.21-5.08,18.2-.76s8.08,18.75,7,23.14-8.85,17.43-14,17.41a15.21,15.21,0,0,1-5.84-1.47,67.11,67.11,0,0,1,2,7.63c5.34,25.63-11.76,45-20.55,40.18-5.64-3.11-10,6.76-10,6.76l-46.62-62.31S1590.49,772.38,1610.82,790.87Z"/><path class="cls-14" d="M1571.38,956.42c38.61,12.05,44.77-48.48,42.31-48.79-4.16-3.72-9.69-18-9.51-39.63l-1.89.36-31.61,6.13s.67,10,.67,19.31c0,7.32-.46,14.28-2,15.88-2.45.34-3.93.58-3.93.58l0,0C1565,910.93,1561.08,953.21,1571.38,956.42Z"/><path class="cls-30" d="M1570.68,874.5s.68,9.94.66,19.3c17.68-.43,27.09-16.51,31-25.43Z"/><path class="cls-14" d="M1564.74,883.34s41.82.85,42-25.2,5.62-43.48-21.08-45.13-31.93,8.27-34.09,17S1553.87,882.45,1564.74,883.34Z"/><path class="cls-32" d="M1552.82,815.49c6.5-7.81,11.38-6.08,14.1-3.71,22.91-12.48,37.57,6.16,37.57,6.16a49.74,49.74,0,0,0,16.16,29.46s-7.64,4.68-25.2.09c-5.36-1.4-10.14-5.23-14.19-9.87A97.57,97.57,0,0,0,1598,858.19c-21-9.78-29.27-39-30.09-42.1-2.57,2.28-7.62,7.24-9.17,12.12-2.11,6.62-3.1,20.27-7.08,19.79C1551.63,848,1543.08,827.2,1552.82,815.49Z"/><path class="cls-34" d="M1609.34,900.5s6.57,2.13,6.92,6.77c0,0-17.61,32.9-37.08,34.77Z"/><path class="cls-31" d="M1517.54,1057l-15.11,86.17c8.91,5.46,17.53,10.15,25.81,14.17a103.85,103.85,0,0,1,6.79-14.83c-1.2,4.43,1.84,14.24,3.76,19.64,77.06,33.2,123.59,7.69,123.59,7.69-11.57-85.12-3-225.26-5.07-235.28-4-19-41-27.28-41-27.28-13.56,23.77-37.09,34.78-37.09,34.78-8.85-8.74-11.15-32.15-11.15-32.15l-15.46,3.8a58.45,58.45,0,0,0-26.67,14.51c-.66.65-1.33,1.31-2,2-7.64,8.17-27.53,60.91-27.53,60.91s4.18,14.49,11.85,21.78a90.27,90.27,0,0,0,15.09,11Z"/><path class="cls-34" d="M1579.18,942s-9.65-31.94-8.53-36.08c0,0-7.56.93-8.22,5.31C1562.43,911.27,1571,937.93,1579.18,942Z"/><path class="cls-6" d="M1574.25,868.4s-1.86,4.07-4.48,4.52-6.72.44-7.64,0-2.39-3.3-3-4.18a127.48,127.48,0,0,1,14.52-.34Z"/><path class="cls-34" d="M1508.25,1012.9a107.23,107.23,0,0,0,15.09,11s11.58-43.32,8.13-46.33S1521.68,1003,1508.25,1012.9Z"/><path class="cls-14" d="M1676.63,963.54s54,73.49,48.74,98.45c-4.17,19.88-58.79,65.58-58.79,65.58l-14.1-9.1s34.1-49.43,31.11-63.91c-2.32-11.27-36.15-54-36.15-54Z"/><path class="cls-31" d="M1640.58,916.41s29.94,16.08,55.71,67.12c0,0-15.21,20.23-45.48,30.05s-29.25-48.67-29.25-48.67Z"/><polygon class="cls-34" points="1577.66 973.87 1540.53 973.96 1540.29 1004.45 1556.58 1013.62 1576.82 1005.81 1577.66 973.87"/><path class="cls-14" d="M1656.12,1119.39s-15.23-5.8-23.75-3.53c-4.81,1.29-13.73,18.28-8.18,20.85s11.85-6.52,18.69-4.81,15.31,11.65,23.7-4.33Z"/><path class="cls-14" d="M1655.3,1117.47a74.28,74.28,0,0,1-8.5-4.49c-2.64-1.85-4.25,1.44,0,4.49s5.77,1.68,5.77,1.68Z"/><path class="cls-14" d="M1449.49,1115.6s17.27-8.2,20.79,1-2.56,16.92-8.34,15.1S1445.83,1123.73,1449.49,1115.6Z"/><path class="cls-21" d="M1623.14,1005l-1.35-1.3c.17-.18,17.38-18.35,19-43.94a18.88,18.88,0,0,0-10-17.9c-6.11-3.08-13-2-18.91,3-14,11.78-10.52,53.39-10.48,53.81l-1.87.17a161.33,161.33,0,0,1,0-22.87c1.19-16.35,5-27.31,11.2-32.55,6.51-5.47,14.15-6.64,20.95-3.2a20.74,20.74,0,0,1,11.08,19.69C1641,986.19,1623.32,1004.83,1623.14,1005Z"/><path class="cls-21" d="M1597.72,998.57a2.7,2.7,0,1,1,2.53,2.87A2.71,2.71,0,0,1,1597.72,998.57Z"/><path class="cls-21" d="M1619.56,1004.18a2.7,2.7,0,1,1,2.52,2.87A2.7,2.7,0,0,1,1619.56,1004.18Z"/><path class="cls-21" d="M1627.83,940.56h-.08a.64.64,0,0,1-.56-.71c0-.18,2-18.13-3.14-30.64a.64.64,0,1,1,1.19-.49c5.25,12.82,3.24,31.09,3.22,31.27A.63.63,0,0,1,1627.83,940.56Z"/><path class="cls-21" d="M1549.15,945.38h0a.64.64,0,0,1-.62-.66,107.51,107.51,0,0,1,7.24-33.88.64.64,0,0,1,.84-.34.63.63,0,0,1,.34.84,106.4,106.4,0,0,0-7.14,33.43A.64.64,0,0,1,1549.15,945.38Z"/><path class="cls-21" d="M1543.61,948a6.27,6.27,0,1,1,7.89,4A6.26,6.26,0,0,1,1543.61,948Z"/><path class="cls-33" d="M1546.86,946.94a2.85,2.85,0,1,1,3.59,1.84A2.87,2.87,0,0,1,1546.86,946.94Z"/><path class="cls-20" d="M701.22,1504.28h40.43a97.86,97.86,0,0,0-3.23-14.51,40.68,40.68,0,0,0-2.29-5.83c-3.93-7.84-28.9-2.85-28.9-2.85s-2.32,2-4.13,9.58A79.78,79.78,0,0,0,701.22,1504.28Z"/><path class="cls-16" d="M775.44,884.19s32.21,5.66,39.49,24.67S863.36,1235,863.36,1235s-20.37,16.15-64.11,10.35S775.44,884.19,775.44,884.19Z"/><path class="cls-20" d="M823.39,1492.79c.11,5.5.8,10.7,2.79,12.76h80c-1-2.9-3.9-7.25-12.11-8.58-9.32-1.51-23.86-6-32.35-15a24.05,24.05,0,0,1-6.27-11.34c-3.76-16.75-31.11,5.13-31.11,5.13A135.54,135.54,0,0,0,823.39,1492.79Z"/><path class="cls-35" d="M857.82,1480.81c-8.93,2.85-26,11.55-36.86,7.46-7-2.64-46.21-116-48.75-165.61a128,128,0,0,0-2-14.77c-2.32-12.8-6.38-30.38-11.06-49.79-12.54-52-29.5-117-29.14-137.84.57-32.27,96.17-6.76,96.17-6.76s6.58,26.47,7.89,64.79c2.6,76.08,9.73,204.58,29.15,293.82A7.67,7.67,0,0,1,857.82,1480.81Z"/><path class="cls-29" d="M791.47,1120.37l-50.54,366.29s-22.19,5.36-39.46,1.07c0,0-14.79-194.81-13.56-241.9s-10.62-126,2.71-134.73S791.47,1120.37,791.47,1120.37Z"/><path class="cls-6" d="M684.23,901s53.11-34.34,91.21-16.78c6.07,2.8,13,10.61,17.95,16.07,13.77,15.18,40.67,256.2,40.67,256.2s-76.38,25.87-149.83-8.77Z"/><path class="cls-16" d="M778.46,883.32s53.76,22,61,39,31,120.9,31,133.09-41.21,2.73-47.85-16.94c-5.51-16.33-24.09-66.49-33.89-98.22Z"/><path class="cls-14" d="M767.29,900.11c-11.74,2.3-29-.15-41.6-8.47,5.7-13.61,8-24.36,8.86-31.32.05-.37.09-.73.12-1.07a31.66,31.66,0,0,0,.15-7.18h30.35s8.29,3.8,8.29,6.42c0,1.4,0,2.74,0,4,.06,3.49.2,6.54.38,9.15a83,83,0,0,0,1.56,12.53S779.14,897.79,767.29,900.11Z"/><path class="cls-36" d="M773.88,871.66c-23,4.45-36.34-8.12-39.33-11.34-.42-.46-.64-.73-.64-.73.24-.13.5-.23.76-.34,8.56-3.47,28-.71,38.83,3.26C773.56,866,773.7,869.05,773.88,871.66Z"/><path class="cls-14" d="M727,847.09c4.11,22.11,32.64,21.38,45,20,3.47-.39,5.65-.83,5.65-.83,3.92-1,6.1-7.21,7.11-15.28,2-16-.53-39.42-3.23-45.42-4.06-9-11.71-18.78-40.44-11.74S721.77,818.75,727,847.09Z"/><path class="cls-20" d="M782.61,793.22c-3.92-5.44-12.25-12.08-19.81-16.17-16.25-8.79-37,.27-37.13.31-23.46,10.32-29.59,28.27-17.15,56.24,13.16,29.58,25.69,26.25,25.69,26.25s-2.66-1.66-2.42-10.87c0-.53,0-1,.05-1.34a6.16,6.16,0,0,0-2-5c-2.92-2.61-4.34-10.47-1.9-12.66,3-2.65,7.09.56,8.41,3a3.6,3.6,0,0,0,5.15,1.14c7.3-4.62,2.56-13.85,9.54-19.5s21.14-.91,31.61-5.41C796.4,804.09,785.57,797.31,782.61,793.22Z"/><path class="cls-16" d="M785.88,1257.59q-6.93,1.79-13.75,2.92-6,1-12,1.53c-22.73,2-45.56-1.22-72.25-8.87q-9-2.58-18.66-5.84c-.68-.24,1.76-70.8,4.57-143.59.29-7.51.58-15.06.88-22.54.12-3.18.24-6.33.37-9.48,2.56-64.38,5.09-122.52,5.62-125.65,1.22-7.08,2.36-13.12,3.61-18.35,3.63-15.25,8.15-23.62,18-30.81,1-.73,8.83-4.7,15.78-8.15,5.75-2.86,10.86-5.35,10.86-5.35h0c2.29,1.12,5,6.36,7.92,13.73,5.29,13.57,11,34.35,15,49.87l0,.07h0c2.55,10,4.39,17.83,4.91,20.07.88,3.78,2.05,11.1,3.43,21,1.87,13.5,4.11,31.83,6.47,52.63q.36,3.21.72,6.49c.28,2.49.57,5,.85,7.57l.27,2.46c.91,8.23,1.82,16.73,2.73,25.38.76,7.14,11.6,12.3,12.34,19.57.43,4.27,1.33,43.63,2.49,56.19C786.8,1167.44,786.21,1253.37,785.88,1257.59Z"/><path class="cls-37" d="M707.5,972c0,.15-1.84,65.1,47,73s16.4,10,16.4,10-91.93-3.91-93.44-6.34S707.5,972,707.5,972Z"/><path class="cls-37" d="M748.78,1072.89s-.92.65-2.68,1.79l-.09,0c-7.45,4.76-29.57,17.73-61.78,26.43-3.38.91-6.88,1.78-10.48,2.58.29-7.51.58-15.06.88-22.54a95.56,95.56,0,0,1-12.11-1.68c.12-1,.26-2,.39-3,4.09-1.68,8.16-3.3,12.09-4.83,3.2-1.26,6.29-2.44,9.23-3.55,13.23-5,23-8.43,23-8.43l39.17,12.41Z"/><path class="cls-16" d="M759.14,1071.81s-5,1.25-13,2.87a.12.12,0,0,0-.08,0c-14.78,3-39.61,7.13-61.79,6.9-3.28,0-6.49-.16-9.6-.4a95.56,95.56,0,0,1-12.11-1.68c-8.11-1.71-14.9-4.61-19.35-9.13-33-33.61,18-154.25,28.74-166,12.52-13.71,35.37-18.51,48-20.16l1.53-.2c4.43-.53,7.28-.64,7.44-.64h0L726.22,892c-.64,2.09-1.39,4.51-2.21,7.21-7.75,25.39-22.71,75.27-29.3,103.4-2.41,10.29-3.7,17.67-3.12,19.87,2.58,9.61,29.24,14.55,46.13,16.74,7,.91,12.39,1.34,13.59,1.43a1.1,1.1,0,0,1,.25,0l1,4,2.33,9.61,2.3,9.44Z"/><polygon class="cls-20" points="851.18 1129.63 737.85 1124.85 760.84 983.62 874.17 988.4 851.18 1129.63"/><path class="cls-14" d="M751.56,1040.65s22.06-1.54,23.16,3.6c2.58,12-19,21.83-25.94,21.16S746.48,1039.85,751.56,1040.65Z"/><path class="cls-14" d="M868,1017.08s-21.1-6.6-23.37-1.86c-5.28,11.07,13.4,25.63,20.35,26.59S873.1,1017.47,868,1017.08Z"/><path class="cls-37" d="M731.15,876.32s-9.28,4.42-13.93,11.09c0,0,34.69,60.24,34.54,59.67S740,884,731.15,876.32Z"/><path class="cls-37" d="M774.36,877.16c3.06,1.16,8.92,7.16,10.24,10.48l4.12,52.58s-8.8-38.59-13.28-56A29.45,29.45,0,0,1,774.36,877.16Z"/><path class="cls-22" d="M798.41,985.2s.9-3.91,6.05-3.46,34.14,1.88,34.14,1.88,5.59-.09,5.07,3.49Z"/><path class="cls-6" d="M765.17,852.07a12.1,12.1,0,0,0,9.83,2.37c3.6-.63,5.61-5.31,5.61-5.31S773.7,847.88,765.17,852.07Z"/><rect class="cls-1" x="698.39" y="925.97" width="29.34" height="13.16"/><path class="cls-38" d="M313.91,1501.6c-2.9-4.56-11.65-16.41-23.3-14.84-12.69,1.71,14,10.07,22.2,14.88a13.69,13.69,0,0,1-4.53-.53c-5.46-1.95-14.83,1.79-17.82,3.1h52.05a8.24,8.24,0,0,0-3.72-4.76c-.86-.52-2.58-.6-4.79-.43,3.09-3.64,5.24-15.3-3.38-12.3-6.29,2.19-6.27,9.31-5.65,13.52-1.34.21-2.7.43-4,.62-2.59-13.21-11.76-51.92-30.34-52.95-18.83-1,16,40.14,27.56,53.32C316.67,1501.41,315.24,1501.54,313.91,1501.6Z"/><rect class="cls-39" x="96.6" y="1504.17" width="2576.63" height="6.83" rx="2.92" ry="2.92"/></svg>